<svg width="613" height="566" xmlns="http://www.w3.org/2000/svg">

 <g>
  <title>Layer 1</title>
  <g id="svg_9" class="vlogo">
   <polygon id="svg_106" fill="#33a072" points="338.510009765625,519.140034198761 283.9100341796875,519.140034198761 311.2100830078125,566.4200024604797 338.510009765625,519.140034198761 "/>
   <polygon id="svg_107" fill="#33a072" points="283.9100341796875,519.140034198761 311.2100830078125,471.849995136261 256.61004638671875,471.849995136261 283.9100341796875,519.140034198761 "/>
   <polygon id="svg_108" fill="#318d64" points="338.510009765625,519.140034198761 311.2100830078125,471.849995136261 283.9100341796875,519.140034198761 338.510009765625,519.140034198761 "/>
   <polygon id="svg_109" fill="#33a072" points="338.510009765625,519.140034198761 365.800048828125,471.849995136261 311.2100830078125,471.849995136261 338.510009765625,519.140034198761 "/>
   <polygon id="svg_110" fill="#33a072" points="283.9100341796875,424.5699963569641 311.2000732421875,377.28999757766724 256.61004638671875,377.28999757766724 283.9100341796875,424.5699963569641 "/>
   <polygon id="svg_111" fill="#318d64" points="283.9100341796875,424.5699963569641 256.61004638671875,471.849995136261 311.2100830078125,471.849995136261 283.9100341796875,424.5699963569641 "/>
   <polygon id="svg_112" fill="#33a072" points="229.31005859375,424.5699963569641 256.61004638671875,471.849995136261 283.9100341796875,424.5699963569641 229.31005859375,424.5699963569641 "/>
   <polygon id="svg_113" fill="#45b280" points="229.31005859375,424.5699963569641 283.9100341796875,424.5699963569641 256.61004638671875,377.28999757766724 229.31005859375,424.5699963569641 "/>
   <polygon id="svg_114" fill="#33a072" points="229.31005859375,424.5699963569641 256.61004638671875,377.28999757766724 202.02001953125,377.28999757766724 229.31005859375,424.5699963569641 "/>
   <polygon id="svg_115" fill="#45b280" points="338.510009765625,424.5699963569641 311.2000732421875,377.28999757766724 283.9100341796875,424.5699963569641 338.510009765625,424.5699963569641 "/>
   <polygon id="svg_116" fill="#33a072" points="338.510009765625,424.5699963569641 283.9100341796875,424.5699963569641 311.2100830078125,471.849995136261 338.510009765625,424.5699963569641 "/>
   <polygon id="svg_117" fill="#318d64" points="338.510009765625,424.5699963569641 311.2100830078125,471.849995136261 365.800048828125,471.849995136261 338.510009765625,424.5699963569641 "/>
   <polygon id="svg_118" fill="#33a072" points="338.510009765625,424.5699963569641 365.800048828125,377.28999757766724 311.2100830078125,377.28999757766724 338.510009765625,424.5699963569641 "/>
   <polygon id="svg_119" fill="#6dbe94" points="174.71002197265625,330.00999879837036 202.02001953125,282.7199902534485 147.4200439453125,282.7199902534485 174.71002197265625,330.00999879837036 "/>
   <polygon id="svg_120" fill="#34495f" points="283.9100341796875,330.00999879837036 311.2100830078125,282.7199902534485 256.61004638671875,282.7199902534485 283.9100341796875,330.00999879837036 "/>
   <polygon id="svg_121" fill="#45b280" points="283.9100341796875,330.00999879837036 256.61004638671875,377.28999757766724 311.2100830078125,377.28999757766724 283.9100341796875,330.00999879837036 "/>
   <polygon id="svg_122" fill="#45b280" points="229.31005859375,330.00999879837036 202.02001953125,282.7199902534485 174.71002197265625,330.00999879837036 229.31005859375,330.00999879837036 "/>
   <polygon id="svg_123" fill="#6dbe94" points="229.31005859375,330.00999879837036 174.71002197265625,330.00999879837036 202.02001953125,377.28999757766724 229.31005859375,330.00999879837036 "/>
   <polygon id="svg_124" fill="#45b280" points="229.31005859375,330.00999879837036 202.02001953125,377.28999757766724 256.61004638671875,377.28999757766724 229.31005859375,330.00999879837036 "/>
   <polygon id="svg_125" fill="#6dbe94" points="229.31005859375,330.00999879837036 256.61004638671875,377.28999757766724 283.9100341796875,330.00999879837036 229.31005859375,330.00999879837036 "/>
   <polygon id="svg_126" fill="#45b280" points="229.31005859375,330.00999879837036 283.9100341796875,330.00999879837036 256.61004638671875,282.7199902534485 229.31005859375,330.00999879837036 "/>
   <polygon id="svg_127" fill="#6dbe94" points="229.31005859375,330.00999879837036 256.61004638671875,282.7199902534485 202.02001953125,282.7199902534485 229.31005859375,330.00999879837036 "/>
   <polygon id="svg_128" fill="#45617d" points="338.510009765625,330.00999879837036 311.2100830078125,282.7199902534485 283.9100341796875,330.00999879837036 338.510009765625,330.00999879837036 "/>
   <polygon id="svg_129" fill="#34495f" points="338.510009765625,330.00999879837036 283.9100341796875,330.00999879837036 311.2100830078125,377.28999757766724 338.510009765625,330.00999879837036 "/>
   <polygon id="svg_130" fill="#45b280" points="338.510009765625,330.00999879837036 311.2100830078125,377.28999757766724 365.800048828125,377.28999757766724 338.510009765625,330.00999879837036 "/>
   <polygon id="svg_131" fill="#34495f" points="338.510009765625,330.00999879837036 365.800048828125,282.7199902534485 311.2100830078125,282.7199902534485 338.510009765625,330.00999879837036 "/>
   <polygon id="svg_132" fill="#45b280" points="393.1099853515625,424.5699963569641 365.800048828125,377.28999757766724 338.510009765625,424.5699963569641 393.1099853515625,424.5699963569641 "/>
   <polygon id="svg_133" fill="#33a072" points="393.1099853515625,424.5699963569641 338.510009765625,424.5699963569641 365.800048828125,471.849995136261 393.1099853515625,424.5699963569641 "/>
   <polygon id="svg_134" fill="#33a072" points="393.1099853515625,424.5699963569641 420.4000244140625,377.28999757766724 365.800048828125,377.28999757766724 393.1099853515625,424.5699963569641 "/>
   <polygon id="svg_135" fill="#45b280" points="393.1099853515625,330.00999879837036 365.800048828125,282.7199902534485 338.510009765625,330.00999879837036 393.1099853515625,330.00999879837036 "/>
   <polygon id="svg_136" fill="#6dbe94" points="393.1099853515625,330.00999879837036 338.510009765625,330.00999879837036 365.800048828125,377.28999757766724 393.1099853515625,330.00999879837036 "/>
   <polygon id="svg_137" fill="#45b280" points="393.1099853515625,330.00999879837036 365.800048828125,377.28999757766724 420.4000244140625,377.28999757766724 393.1099853515625,330.00999879837036 "/>
   <polygon id="svg_138" fill="#6dbe94" points="393.1099853515625,330.00999879837036 420.4000244140625,377.28999757766724 447.7000732421875,330.00999879837036 393.1099853515625,330.00999879837036 "/>
   <polygon id="svg_139" fill="#45b280" points="393.1099853515625,330.00999879837036 447.7000732421875,330.00999879837036 420.4000244140625,282.7199902534485 393.1099853515625,330.00999879837036 "/>
   <polygon id="svg_140" fill="#6dbe94" points="393.1099853515625,330.00999879837036 420.4000244140625,282.7199902534485 365.800048828125,282.7199902534485 393.1099853515625,330.00999879837036 "/>
   <polygon id="svg_141" fill="#6dbe94" points="447.7000732421875,330.00999879837036 475,282.7199902534485 420.4000244140625,282.7199902534485 447.7000732421875,330.00999879837036 "/>
   <polygon id="svg_142" fill="#6dbe94" points="120.1300048828125,235.44000673294067 147.4200439453125,282.7199902534485 174.71002197265625,235.44000673294067 120.1300048828125,235.44000673294067 "/>
   <polygon id="svg_143" fill="#89c8a6" points="120.1300048828125,235.44000673294067 174.71002197265625,235.44000673294067 147.4200439453125,188.1600079536438 120.1300048828125,235.44000673294067 "/>
   <polygon id="svg_144" fill="#6dbe94" points="120.1300048828125,235.44000673294067 147.4200439453125,188.1600079536438 92.82000732421875,188.1600079536438 120.1300048828125,235.44000673294067 "/>
   <polygon id="svg_145" fill="#6dbe94" points="174.71002197265625,235.44000673294067 202.02001953125,188.1600079536438 147.4200439453125,188.1600079536438 174.71002197265625,235.44000673294067 "/>
   <polygon id="svg_146" fill="#86a8ca" points="283.9100341796875,235.44000673294067 311.2100830078125,188.1600079536438 256.61004638671875,188.1600079536438 283.9100341796875,235.44000673294067 "/>
   <polygon id="svg_147" fill="#547ca4" points="283.9100341796875,235.44000673294067 256.61004638671875,282.7199902534485 311.2100830078125,282.7199902534485 283.9100341796875,235.44000673294067 "/>
   <polygon id="svg_148" fill="#45b280" points="174.71002197265625,235.44000673294067 147.4200439453125,282.7199902534485 202.02001953125,282.7199902534485 174.71002197265625,235.44000673294067 "/>
   <polygon id="svg_149" fill="#89c8a6" points="229.31005859375,235.44000673294067 202.02001953125,188.1600079536438 174.71002197265625,235.44000673294067 229.31005859375,235.44000673294067 "/>
   <polygon id="svg_150" fill="#6dbe94" points="229.31005859375,235.44000673294067 174.71002197265625,235.44000673294067 202.02001953125,282.7199902534485 229.31005859375,235.44000673294067 "/>
   <polygon id="svg_151" fill="#45b280" points="229.31005859375,235.44000673294067 202.02001953125,282.7199902534485 256.61004638671875,282.7199902534485 229.31005859375,235.44000673294067 "/>
   <polygon id="svg_152" fill="#45617d" points="229.31005859375,235.44000673294067 256.61004638671875,282.7199902534485 283.9100341796875,235.44000673294067 229.31005859375,235.44000673294067 "/>
   <polygon id="svg_153" fill="#547ca4" points="229.31005859375,235.44000673294067 283.9100341796875,235.44000673294067 256.61004638671875,188.1600079536438 229.31005859375,235.44000673294067 "/>
   <polygon id="svg_154" fill="#86a8ca" points="229.31005859375,235.44000673294067 256.61004638671875,188.1600079536438 202.02001953125,188.1600079536438 229.31005859375,235.44000673294067 "/>
   <polygon id="svg_155" fill="#547ca4" points="338.510009765625,235.44000673294067 311.2100830078125,188.1600079536438 283.9100341796875,235.44000673294067 338.510009765625,235.44000673294067 "/>
   <polygon id="svg_156" fill="#45617d" points="338.510009765625,235.44000673294067 283.9100341796875,235.44000673294067 311.2100830078125,282.7199902534485 338.510009765625,235.44000673294067 "/>
   <polygon id="svg_157" fill="#547ca4" points="338.510009765625,235.44000673294067 311.2100830078125,282.7199902534485 365.800048828125,282.7199902534485 338.510009765625,235.44000673294067 "/>
   <polygon id="svg_158" fill="#86a8ca" points="338.510009765625,235.44000673294067 365.800048828125,188.1600079536438 311.2100830078125,188.1600079536438 338.510009765625,235.44000673294067 "/>
   <polygon id="svg_159" fill="#89c8a6" points="97.780029296875,105.8999981880188 70.48004150390625,58.619999408721924 43.1800537109375,105.8999981880188 97.780029296875,105.8999981880188 "/>
   <polygon id="svg_160" fill="#aed8c3" points="112.08001708984375,120.13999605178833 57.49005126953125,120.13999605178833 84.7900390625,167.42000246047974 112.08001708984375,120.13999605178833 "/>
   <polygon id="svg_161" fill="#89c8a6" points="120.1300048828125,140.88000917434692 92.82000732421875,188.1600079536438 147.4200439453125,188.1600079536438 120.1300048828125,140.88000917434692 "/>
   <polygon id="svg_162" fill="#aed8c3" points="120.1300048828125,140.88000917434692 147.4200439453125,188.1600079536438 174.71002197265625,140.88000917434692 120.1300048828125,140.88000917434692 "/>
   <polygon id="svg_163" fill="#89c8a6" points="117.07000732421875,132.7300000190735 171.6600341796875,132.7300000190735 144.36004638671875,85.44999361038208 117.07000732421875,132.7300000190735 "/>
   <polygon id="svg_164" fill="#aed8c3" points="105.07000732421875,80.55999422073364 132.37005615234375,33.27999925613403 77.77001953125,33.27999925613403 105.07000732421875,80.55999422073364 "/>
   <polygon id="svg_165" fill="#aed8c3" points="27.2900390625,47.27999925613403 54.60003662109375,0 0,0 27.2900390625,47.27999925613403 "/>
   <polygon id="svg_166" fill="#a2bedb" points="168.9300537109375,97.98999452590942 196.23004150390625,50.709999561309814 141.6300048828125,50.709999561309814 168.9300537109375,97.98999452590942 "/>
   <polygon id="svg_167" fill="#6890b7" points="283.9100341796875,140.88000917434692 256.61004638671875,188.1600079536438 311.2100830078125,188.1600079536438 283.9100341796875,140.88000917434692 "/>
   <polygon id="svg_168" fill="#89c8a6" points="174.71002197265625,140.88000917434692 147.4200439453125,188.1600079536438 202.02001953125,188.1600079536438 174.71002197265625,140.88000917434692 "/>
   <polygon id="svg_169" fill="#86a8ca" points="229.31005859375,140.88000917434692 202.02001953125,93.59999513626099 174.71002197265625,140.88000917434692 229.31005859375,140.88000917434692 "/>
   <polygon id="svg_170" fill="#a2bedb" points="229.31005859375,140.88000917434692 174.71002197265625,140.88000917434692 202.02001953125,188.1600079536438 229.31005859375,140.88000917434692 "/>
   <polygon id="svg_171" fill="#6890b7" points="229.31005859375,140.88000917434692 202.02001953125,188.1600079536438 256.61004638671875,188.1600079536438 229.31005859375,140.88000917434692 "/>
   <polygon id="svg_172" fill="#a2bedb" points="229.31005859375,140.88000917434692 256.61004638671875,188.1600079536438 283.9100341796875,140.88000917434692 229.31005859375,140.88000917434692 "/>
   <polygon id="svg_173" fill="#86a8ca" points="229.31005859375,140.88000917434692 283.9100341796875,140.88000917434692 256.61004638671875,93.59999513626099 229.31005859375,140.88000917434692 "/>
   <polygon id="svg_174" fill="#a2bedb" points="229.31005859375,123.56000185012817 256.61004638671875,76.27999544143677 202.02001953125,76.27999544143677 229.31005859375,123.56000185012817 "/>
   <polygon id="svg_175" fill="#6890b7" points="338.510009765625,140.88000917434692 311.2100830078125,188.1600079536438 365.800048828125,188.1600079536438 338.510009765625,140.88000917434692 "/>
   <polygon id="svg_176" fill="#547ca4" points="393.1099853515625,235.44000673294067 365.800048828125,188.1600079536438 338.510009765625,235.44000673294067 393.1099853515625,235.44000673294067 "/>
   <polygon id="svg_177" fill="#45617d" points="393.1099853515625,235.44000673294067 338.510009765625,235.44000673294067 365.800048828125,282.7199902534485 393.1099853515625,235.44000673294067 "/>
   <polygon id="svg_178" fill="#45b280" points="393.1099853515625,235.44000673294067 365.800048828125,282.7199902534485 420.4000244140625,282.7199902534485 393.1099853515625,235.44000673294067 "/>
   <polygon id="svg_179" fill="#6dbe94" points="393.1099853515625,235.44000673294067 420.4000244140625,282.7199902534485 447.7000732421875,235.44000673294067 393.1099853515625,235.44000673294067 "/>
   <polygon id="svg_180" fill="#89c8a6" points="393.1099853515625,235.44000673294067 447.7000732421875,235.44000673294067 420.4000244140625,188.1600079536438 393.1099853515625,235.44000673294067 "/>
   <polygon id="svg_181" fill="#86a8ca" points="393.1099853515625,235.44000673294067 420.4000244140625,188.1600079536438 365.800048828125,188.1600079536438 393.1099853515625,235.44000673294067 "/>
   <polygon id="svg_182" fill="#89c8a6" points="502.300048828125,235.44000673294067 475,188.1600079536438 447.7000732421875,235.44000673294067 502.300048828125,235.44000673294067 "/>
   <polygon id="svg_183" fill="#6dbe94" points="502.300048828125,235.44000673294067 447.7000732421875,235.44000673294067 475,282.7199902534485 502.300048828125,235.44000673294067 "/>
   <polygon id="svg_184" fill="#6dbe94" points="502.300048828125,235.44000673294067 529.590087890625,188.1600079536438 475,188.1600079536438 502.300048828125,235.44000673294067 "/>
   <polygon id="svg_185" fill="#6dbe94" points="447.7000732421875,235.44000673294067 475,188.1600079536438 420.4000244140625,188.1600079536438 447.7000732421875,235.44000673294067 "/>
   <polygon id="svg_186" fill="#45b280" points="447.7000732421875,235.44000673294067 420.4000244140625,282.7199902534485 475,282.7199902534485 447.7000732421875,235.44000673294067 "/>
   <polygon id="svg_187" fill="#86a8ca" points="393.1099853515625,140.88000917434692 365.800048828125,93.59999513626099 338.510009765625,140.88000917434692 393.1099853515625,140.88000917434692 "/>
   <polygon id="svg_188" fill="#a2bedb" points="393.1099853515625,140.88000917434692 338.510009765625,140.88000917434692 365.800048828125,188.1600079536438 393.1099853515625,140.88000917434692 "/>
   <polygon id="svg_189" fill="#6890b7" points="393.1099853515625,140.88000917434692 365.800048828125,188.1600079536438 420.4000244140625,188.1600079536438 393.1099853515625,140.88000917434692 "/>
   <polygon id="svg_190" fill="#a2bedb" points="393.1099853515625,140.88000917434692 420.4000244140625,188.1600079536438 447.7000732421875,140.88000917434692 393.1099853515625,140.88000917434692 "/>
   <polygon id="svg_191" fill="#86a8ca" points="393.1099853515625,140.88000917434692 447.7000732421875,140.88000917434692 420.4000244140625,93.59999513626099 393.1099853515625,140.88000917434692 "/>
   <polygon id="svg_192" fill="#a2bedb" points="396.8800048828125,105.8999981880188 424.1800537109375,58.619999408721924 369.580078125,58.619999408721924 396.8800048828125,105.8999981880188 "/>
   <polygon id="svg_193" fill="#89c8a6" points="507.7900390625,105.17999696731567 480.5,57.889999866485596 453.1900634765625,105.17999696731567 507.7900390625,105.17999696731567 "/>
   <polygon id="svg_194" fill="#aed8c3" points="502.300048828125,122.06999635696411 447.7000732421875,122.06999635696411 475,169.35001039505005 502.300048828125,122.06999635696411 "/>
   <polygon id="svg_195" fill="#89c8a6" points="502.300048828125,140.88000917434692 475,188.1600079536438 529.590087890625,188.1600079536438 502.300048828125,140.88000917434692 "/>
   <polygon id="svg_196" fill="#aed8c3" points="502.300048828125,140.88000917434692 529.590087890625,188.1600079536438 556.8900146484375,140.88000917434692 502.300048828125,140.88000917434692 "/>
   <polygon id="svg_197" fill="#89c8a6" points="512.739990234375,123.56000185012817 567.340087890625,123.56000185012817 540.0400390625,76.27999544143677 512.739990234375,123.56000185012817 "/>
   <polygon id="svg_198" fill="#aed8c3" points="515.1199951171875,76.27999544143677 542.4200439453125,29.000000476837158 487.830078125,29.000000476837158 515.1199951171875,76.27999544143677 "/>
   <polygon id="svg_199" fill="#a2bedb" points="447.7000732421875,61.31999635696411 475,14.03999948501587 420.4000244140625,14.03999948501587 447.7000732421875,61.31999635696411 "/>
   <polygon id="svg_200" fill="#aed8c3" points="585.820068359375,58.959999561309814 613.1300048828125,11.68000078201294 558.530029296875,11.68000078201294 585.820068359375,58.959999561309814 "/>
   <polygon id="svg_201" fill="#89c8a6" points="447.7000732421875,140.88000917434692 420.4000244140625,188.1600079536438 475,188.1600079536438 447.7000732421875,140.88000917434692 "/>
  </g>
 </g>
</svg>