<?xml version="1.0" standalone="no"?>
<!DOCTYPE svg PUBLIC "-//W3C//DTD SVG 20010904//EN"
 "http://www.w3.org/TR/2001/REC-SVG-20010904/DTD/svg10.dtd">
<svg version="1.0" xmlns="http://www.w3.org/2000/svg"
 width="456.000000pt" height="815.000000pt" viewBox="0 0 456.000000 815.000000"
 preserveAspectRatio="xMidYMid meet">

<g transform="translate(0.000000,815.000000) scale(0.100000,-0.100000)"
fill="#000000" stroke="none">
<path d="M1363 8093 c-7 -2 -13 -20 -13 -39 l0 -34 78 0 c238 -1 432 -135 504
-350 22 -63 23 -82 26 -541 l3 -476 202 5 c204 5 470 -7 762 -33 88 -8 172
-15 188 -15 l27 0 0 493 c0 421 2 501 16 548 66 227 265 369 516 369 l68 0 0
34 c0 22 -6 36 -16 40 -19 7 -2343 7 -2361 -1z"/>
<path d="M1950 6425 c-718 -96 -1198 -511 -1330 -1148 -104 -508 18 -956 359
-1311 120 -124 233 -213 492 -386 133 -89 248 -164 255 -167 12 -4 14 109 14
714 l0 719 -51 49 c-73 72 -135 162 -164 240 -85 225 0 532 196 710 197 178
458 265 798 265 493 0 862 -189 1032 -529 39 -78 79 -219 79 -277 0 -17 3 -46
6 -63 6 -27 10 -31 40 -31 19 0 34 1 34 3 0 2 20 244 45 538 25 294 45 551 45
572 l0 37 -232 0 c-166 0 -284 6 -408 20 -474 53 -1003 73 -1210 45z"/>
<path d="M2290 5874 c-92 -17 -222 -61 -285 -97 l-40 -23 -6 -1574 c-4 -1137
-9 -1597 -17 -1655 -63 -423 -148 -675 -310 -925 -67 -103 -83 -124 -180 -224
-99 -101 -204 -180 -320 -239 -88 -46 -92 -49 -92 -82 l0 -33 97 -7 c174 -13
421 13 623 66 641 169 1131 635 1304 1239 34 117 54 234 66 375 11 140 14
3014 2 3031 -23 37 -190 105 -342 140 -99 23 -394 27 -500 8z"/>
<path d="M3360 3279 c0 -601 -12 -759 -76 -987 l-26 -93 30 -57 c204 -384 185
-818 -51 -1167 -49 -72 -191 -216 -268 -273 -234 -170 -527 -264 -874 -279
-559 -24 -1103 196 -1435 579 -419 483 -511 1134 -246 1750 40 93 108 226 147
286 13 21 12 24 -16 47 -17 13 -34 23 -39 21 -15 -4 -136 -177 -190 -271 -91
-160 -176 -373 -220 -550 -34 -140 -41 -214 -41 -425 0 -183 4 -232 23 -327
174 -863 933 -1439 1954 -1481 523 -22 955 62 1362 265 338 168 629 422 821
718 365 559 394 1237 78 1825 -161 301 -417 566 -781 809 -68 45 -129 84 -137
88 -13 4 -15 -59 -15 -478z"/>
<path d="M3105 1853 c-342 -615 -1008 -1015 -1760 -1056 l-50 -2 50 -24 c187
-86 422 -131 686 -131 593 0 1051 299 1160 758 28 115 23 317 -11 432 -12 41
-25 79 -29 83 -5 5 -26 -22 -46 -60z"/>
</g>
</svg>
