<?xml version="1.0" encoding="UTF-8"?>
<!DOCTYPE svg PUBLIC "-//W3C//DTD SVG 1.1//EN" "http://www.w3.org/Graphics/SVG/1.1/DTD/svg11.dtd">
<svg xmlns="http://www.w3.org/2000/svg" version="1.1" width="456px" height="815px" style="shape-rendering:geometricPrecision; text-rendering:geometricPrecision; image-rendering:optimizeQuality; fill-rule:evenodd; clip-rule:evenodd" xmlns:xlink="http://www.w3.org/1999/xlink">
<g><path style="opacity:1" fill="#808080" d="M 373.5,12.5 C 373.5,10.1667 373.5,7.83333 373.5,5.5C 294.167,5.5 214.833,5.5 135.5,5.5C 135.5,7.83333 135.5,10.1667 135.5,12.5C 140.695,12.1795 145.695,12.5128 150.5,13.5C 145.167,13.5 139.833,13.5 134.5,13.5C 134.5,10.5 134.5,7.5 134.5,4.5C 214.071,4.83163 293.571,4.4983 373,3.5C 374.754,6.49185 374.921,9.49185 373.5,12.5 Z"/></g>
<g><path style="opacity:1" fill="#414143" d="M 373.5,12.5 C 362.229,12.4168 351.229,14.4168 340.5,18.5C 338.973,18.427 337.973,19.0937 337.5,20.5C 336.71,21.4013 335.71,22.0679 334.5,22.5C 332.596,22.7376 331.262,23.7376 330.5,25.5C 328.138,28.192 325.804,30.8587 323.5,33.5C 322.504,33.5858 321.671,33.2524 321,32.5C 319.451,35.3117 318.618,38.3117 318.5,41.5C 317.141,45.2526 315.807,48.9192 314.5,52.5C 313.698,53.9516 313.198,55.6183 313,57.5C 312.5,89.4983 312.333,121.498 312.5,153.5C 309.833,153.5 307.167,153.5 304.5,153.5C 270.251,150.13 235.918,148.797 201.5,149.5C 199.5,149.5 197.5,149.5 195.5,149.5C 195.667,118.165 195.5,86.8316 195,55.5C 194.768,54.2625 194.268,53.2625 193.5,52.5C 192.629,49.8877 191.963,47.221 191.5,44.5C 191.461,40.4913 189.794,37.4913 186.5,35.5C 183.815,32.8103 181.482,29.8103 179.5,26.5C 178.415,24.4131 176.749,23.0798 174.5,22.5C 174.027,21.0937 173.027,20.427 171.5,20.5C 170.316,19.3121 170.316,18.1455 171.5,17C 168.943,17.2809 166.276,17.1142 163.5,16.5C 163.167,16.5 162.833,16.5 162.5,16.5C 161.365,14.7868 159.698,14.1201 157.5,14.5C 155.097,14.552 152.764,14.2186 150.5,13.5C 145.695,12.5128 140.695,12.1795 135.5,12.5C 135.5,10.1667 135.5,7.83333 135.5,5.5C 214.833,5.5 294.167,5.5 373.5,5.5C 373.5,7.83333 373.5,10.1667 373.5,12.5 Z"/></g>
<g><path style="opacity:1" fill="#939393" d="M 157.5,14.5 C 159.698,14.1201 161.365,14.7868 162.5,16.5C 160.597,16.2041 158.93,15.5375 157.5,14.5 Z"/></g>
<g><path style="opacity:1" fill="#6c6c6d" d="M 163.5,16.5 C 166.276,17.1142 168.943,17.2809 171.5,17C 170.316,18.1455 170.316,19.3121 171.5,20.5C 168.515,19.6743 165.849,18.341 163.5,16.5 Z"/></g>
<g><path style="opacity:0.188" fill="#c8c8c9" d="M 340.5,18.5 C 340.027,19.9063 339.027,20.573 337.5,20.5C 337.973,19.0937 338.973,18.427 340.5,18.5 Z"/></g>
<g><path style="opacity:1" fill="#939394" d="M 171.5,20.5 C 173.027,20.427 174.027,21.0937 174.5,22.5C 172.973,22.573 171.973,21.9063 171.5,20.5 Z"/></g>
<g><path style="opacity:0.627" fill="#c8c8c9" d="M 334.5,22.5 C 333.738,24.2624 332.404,25.2624 330.5,25.5C 331.262,23.7376 332.596,22.7376 334.5,22.5 Z"/></g>
<g><path style="opacity:1" fill="#919191" d="M 174.5,22.5 C 176.749,23.0798 178.415,24.4131 179.5,26.5C 177.251,25.9202 175.585,24.5869 174.5,22.5 Z"/></g>
<g><path style="opacity:1" fill="#7b7b7c" d="M 323.5,33.5 C 321.819,36.2028 320.153,38.8695 318.5,41.5C 318.618,38.3117 319.451,35.3117 321,32.5C 321.671,33.2524 322.504,33.5858 323.5,33.5 Z"/></g>
<g><path style="opacity:0.314" fill="#e3e3e4" d="M 186.5,36.5 C 186.631,37.2389 186.464,37.9056 186,38.5C 185.308,37.5632 185.475,36.8966 186.5,36.5 Z"/></g>
<g><path style="opacity:1" fill="#787879" d="M 186.5,36.5 C 186.5,36.1667 186.5,35.8333 186.5,35.5C 189.794,37.4913 191.461,40.4913 191.5,44.5C 189.833,41.8333 188.167,39.1667 186.5,36.5 Z"/></g>
<g><path style="opacity:1" fill="#a1a1a1" d="M 193.5,52.5 C 194.268,53.2625 194.768,54.2625 195,55.5C 195.5,86.8316 195.667,118.165 195.5,149.5C 197.5,149.5 199.5,149.5 201.5,149.5C 199.393,150.468 197.059,150.802 194.5,150.5C 194.805,117.809 194.471,85.1421 193.5,52.5 Z"/></g>
<g><path style="opacity:1" fill="#7e7e7e" d="M 314.5,52.5 C 313.549,86.4844 313.216,120.484 313.5,154.5C 310.287,154.81 307.287,154.477 304.5,153.5C 307.167,153.5 309.833,153.5 312.5,153.5C 312.333,121.498 312.5,89.4983 313,57.5C 313.198,55.6183 313.698,53.9516 314.5,52.5 Z"/></g>
<g><path style="opacity:1" fill="#424244" d="M 207.5,170.5 C 207.833,170.5 208.167,170.5 208.5,170.5C 226.17,170.678 243.837,171.011 261.5,171.5C 280.964,172.209 300.297,173.876 319.5,176.5C 321.631,177.314 323.964,177.814 326.5,178C 344.164,178.5 361.83,178.667 379.5,178.5C 379.5,181.833 379.5,185.167 379.5,188.5C 377.999,213.022 375.999,237.355 373.5,261.5C 372.028,268.951 371.361,276.618 371.5,284.5C 371.81,287.713 371.477,290.713 370.5,293.5C 368.167,293.5 365.833,293.5 363.5,293.5C 363.638,288.586 362.972,283.919 361.5,279.5C 359.777,271.662 357.443,263.996 354.5,256.5C 354.715,254.821 354.048,253.821 352.5,253.5C 352.5,253.167 352.5,252.833 352.5,252.5C 353.301,247.607 351.634,245.274 347.5,245.5C 346.833,244.5 346.167,243.5 345.5,242.5C 345.573,240.973 344.906,239.973 343.5,239.5C 339.833,236.5 336.5,233.167 333.5,229.5C 332.415,227.413 330.749,226.08 328.5,225.5C 328.027,224.094 327.027,223.427 325.5,223.5C 324.508,223.672 323.842,223.338 323.5,222.5C 323.027,221.094 322.027,220.427 320.5,220.5C 319.508,220.672 318.842,220.338 318.5,219.5C 318.027,218.094 317.027,217.427 315.5,217.5C 314.391,217.443 313.391,217.11 312.5,216.5C 311.817,214.824 310.483,214.157 308.5,214.5C 306.853,211.29 304.52,210.29 301.5,211.5C 299.898,209.926 297.898,209.259 295.5,209.5C 288.803,208.158 282.137,206.824 275.5,205.5C 274.391,204.71 273.058,204.21 271.5,204C 265.843,203.501 260.176,203.334 254.5,203.5C 252.118,204.546 249.785,204.546 247.5,203.5C 239.929,203.157 232.596,203.823 225.5,205.5C 221.368,206.863 217.035,207.863 212.5,208.5C 209.084,208.528 206.084,209.528 203.5,211.5C 200.251,213.028 196.918,214.361 193.5,215.5C 191.847,215.66 190.514,216.326 189.5,217.5C 185.378,220.734 181.045,223.734 176.5,226.5C 174.396,226.201 172.396,226.534 170.5,227.5C 171.609,229.214 170.942,229.881 168.5,229.5C 168.5,230.833 168.5,232.167 168.5,233.5C 168.167,234.5 167.5,235.167 166.5,235.5C 165.094,235.973 164.427,236.973 164.5,238.5C 164.5,239.167 164.167,239.5 163.5,239.5C 162.094,239.973 161.427,240.973 161.5,242.5C 160.752,244.332 159.752,245.999 158.5,247.5C 157.094,247.973 156.427,248.973 156.5,250.5C 156.672,251.492 156.338,252.158 155.5,252.5C 153.787,253.635 153.12,255.302 153.5,257.5C 147.55,274.823 148.217,291.823 155.5,308.5C 155.427,310.027 156.094,311.027 157.5,311.5C 158.488,312.795 159.488,314.128 160.5,315.5C 160.738,317.404 161.738,318.738 163.5,319.5C 166.797,322.296 169.964,325.296 173,328.5C 173.494,330.134 173.66,331.801 173.5,333.5C 172.833,379.668 172.167,426.002 171.5,472.5C 170.583,471.873 169.583,471.539 168.5,471.5C 168.027,470.094 167.027,469.427 165.5,469.5C 159.205,465.859 153.205,461.859 147.5,457.5C 147.027,456.094 146.027,455.427 144.5,455.5C 144.027,454.094 143.027,453.427 141.5,453.5C 140.738,451.738 139.404,450.738 137.5,450.5C 137.027,449.094 136.027,448.427 134.5,448.5C 134.027,447.094 133.027,446.427 131.5,446.5C 128.489,445.331 125.822,443.664 123.5,441.5C 123.167,440.5 122.5,439.833 121.5,439.5C 121.027,438.094 120.027,437.427 118.5,437.5C 117.415,435.413 115.749,434.08 113.5,433.5C 112.089,431.086 110.089,429.419 107.5,428.5C 107.167,427.5 106.5,426.833 105.5,426.5C 105.167,425.5 104.5,424.833 103.5,424.5C 101.833,422.167 99.8333,420.167 97.5,418.5C 95.1667,416.833 93.1667,414.833 91.5,412.5C 90.8645,410.205 89.5311,408.539 87.5,407.5C 85.9373,406.055 84.604,404.389 83.5,402.5C 83.573,400.973 82.9063,399.973 81.5,399.5C 73.1282,388.421 67.1282,376.088 63.5,362.5C 63.9465,359.99 63.2798,357.99 61.5,356.5C 57.1669,336.358 56.3336,316.025 59,295.5C 59.4092,291.698 60.2425,288.031 61.5,284.5C 62.9238,282.485 63.5905,280.152 63.5,277.5C 64.2679,276.737 64.7679,275.737 65,274.5C 65.3333,274.833 65.6667,275.167 66,275.5C 67.3353,272.776 67.502,270.11 66.5,267.5C 66.5,267.167 66.5,266.833 66.5,266.5C 69.3856,265.193 70.5523,263.193 70,260.5C 71.2433,261.336 72.4099,261.003 73.5,259.5C 72.9598,258.252 72.2931,257.085 71.5,256C 72.1667,255.667 72.8333,255.333 73.5,255C 72.7476,254.329 72.4142,253.496 72.5,252.5C 73.7417,248.345 75.7417,244.678 78.5,241.5C 80.4077,240.514 81.4077,238.848 81.5,236.5C 82.9063,236.027 83.573,235.027 83.5,233.5C 84.0256,231.77 85.0256,230.436 86.5,229.5C 88.2624,228.738 89.2624,227.404 89.5,225.5C 90.1667,224.5 90.8333,223.5 91.5,222.5C 93.8333,222.167 95.1667,220.833 95.5,218.5C 95.8333,217.5 96.5,216.833 97.5,216.5C 98.5,216.167 99.1667,215.5 99.5,214.5C 100.167,213.167 101.167,212.167 102.5,211.5C 104.749,210.92 106.415,209.587 107.5,207.5C 107.833,206.5 108.5,205.833 109.5,205.5C 112.891,204.471 115.557,202.471 117.5,199.5C 119.027,199.573 120.027,198.906 120.5,197.5C 122.027,197.573 123.027,196.906 123.5,195.5C 127.347,192.407 131.68,190.074 136.5,188.5C 138.967,188.245 140.967,187.245 142.5,185.5C 144.698,185.88 146.365,185.213 147.5,183.5C 149.89,181.98 152.557,180.98 155.5,180.5C 159.162,180.277 162.495,179.277 165.5,177.5C 168.428,177.435 171.095,176.768 173.5,175.5C 178.551,173.656 183.884,172.656 189.5,172.5C 195.699,172.348 201.699,171.682 207.5,170.5 Z"/></g>
<g><path style="opacity:1" fill="#9e9e9f" d="M 208.5,170.5 C 226.186,169.271 243.853,169.605 261.5,171.5C 243.837,171.011 226.17,170.678 208.5,170.5 Z"/></g>
<g><path style="opacity:1" fill="#8c8c8c" d="M 207.5,170.5 C 201.699,171.682 195.699,172.348 189.5,172.5C 195.261,170.943 201.261,170.276 207.5,170.5 Z"/></g>
<g><path style="opacity:1" fill="#939394" d="M 173.5,175.5 C 171.095,176.768 168.428,177.435 165.5,177.5C 167.838,175.96 170.505,175.294 173.5,175.5 Z"/></g>
<g><path style="opacity:1" fill="#b2b2b2" d="M 319.5,176.5 C 339.817,177.399 360.151,177.732 380.5,177.5C 380.815,181.371 380.482,185.038 379.5,188.5C 379.5,185.167 379.5,181.833 379.5,178.5C 361.83,178.667 344.164,178.5 326.5,178C 323.964,177.814 321.631,177.314 319.5,176.5 Z"/></g>
<g><path style="opacity:1" fill="#8e8e8f" d="M 165.5,177.5 C 162.495,179.277 159.162,180.277 155.5,180.5C 158.505,178.723 161.838,177.723 165.5,177.5 Z"/></g>
<g><path style="opacity:1" fill="#8a8a8b" d="M 147.5,183.5 C 146.365,185.213 144.698,185.88 142.5,185.5C 143.78,184.069 145.447,183.402 147.5,183.5 Z"/></g>
<g><path style="opacity:1" fill="#a0a0a0" d="M 142.5,185.5 C 140.967,187.245 138.967,188.245 136.5,188.5C 138.033,186.755 140.033,185.755 142.5,185.5 Z"/></g>
<g><path style="opacity:1" fill="#9d9d9d" d="M 123.5,195.5 C 123.027,196.906 122.027,197.573 120.5,197.5C 120.973,196.094 121.973,195.427 123.5,195.5 Z"/></g>
<g><path style="opacity:1" fill="#9c9c9c" d="M 120.5,197.5 C 120.027,198.906 119.027,199.573 117.5,199.5C 117.973,198.094 118.973,197.427 120.5,197.5 Z"/></g>
<g><path style="opacity:1" fill="#969697" d="M 117.5,199.5 C 115.557,202.471 112.891,204.471 109.5,205.5C 111.8,203.016 114.467,201.016 117.5,199.5 Z"/></g>
<g><path style="opacity:1" fill="#9e9e9e" d="M 254.5,203.5 C 260.176,203.334 265.843,203.501 271.5,204C 273.058,204.21 274.391,204.71 275.5,205.5C 268.33,205.093 261.33,204.426 254.5,203.5 Z"/></g>
<g><path style="opacity:0.063" fill="#bfbfc0" d="M 247.5,203.5 C 240.347,204.538 233.014,205.204 225.5,205.5C 232.596,203.823 239.929,203.157 247.5,203.5 Z"/></g>
<g><path style="opacity:1" fill="#888888" d="M 107.5,207.5 C 106.415,209.587 104.749,210.92 102.5,211.5C 103.585,209.413 105.251,208.08 107.5,207.5 Z"/></g>
<g><path style="opacity:1" fill="#c0c0c0" d="M 212.5,208.5 C 209.785,210.072 206.785,211.072 203.5,211.5C 206.084,209.528 209.084,208.528 212.5,208.5 Z"/></g>
<g><path style="opacity:1" fill="#989898" d="M 295.5,209.5 C 297.898,209.259 299.898,209.926 301.5,211.5C 299.102,211.741 297.102,211.074 295.5,209.5 Z"/></g>
<g><path style="opacity:1" fill="#858586" d="M 308.5,214.5 C 305.843,214.065 303.509,213.065 301.5,211.5C 304.52,210.29 306.853,211.29 308.5,214.5 Z"/></g>
<g><path style="opacity:1" fill="#c2c2c3" d="M 99.5,214.5 C 99.1667,215.5 98.5,216.167 97.5,216.5C 97.5,215.167 98.1667,214.5 99.5,214.5 Z"/></g>
<g><path style="opacity:1" fill="#8a8a8a" d="M 308.5,214.5 C 310.483,214.157 311.817,214.824 312.5,216.5C 310.847,216.34 309.514,215.674 308.5,214.5 Z"/></g>
<g><path style="opacity:1" fill="#bbbbbc" d="M 193.5,215.5 C 192.713,217.104 191.38,217.771 189.5,217.5C 190.514,216.326 191.847,215.66 193.5,215.5 Z"/></g>
<g><path style="opacity:1" fill="#b1b1b2" d="M 315.5,217.5 C 317.027,217.427 318.027,218.094 318.5,219.5C 316.973,219.573 315.973,218.906 315.5,217.5 Z"/></g>
<g><path style="opacity:1" fill="#8b8b8c" d="M 95.5,218.5 C 95.1667,220.833 93.8333,222.167 91.5,222.5C 92.5,220.833 93.8333,219.5 95.5,218.5 Z"/></g>
<g><path style="opacity:1" fill="#bababa" d="M 320.5,220.5 C 322.027,220.427 323.027,221.094 323.5,222.5C 321.973,222.573 320.973,221.906 320.5,220.5 Z"/></g>
<g><path style="opacity:1" fill="#a1a1a1" d="M 325.5,223.5 C 327.027,223.427 328.027,224.094 328.5,225.5C 326.973,225.573 325.973,224.906 325.5,223.5 Z"/></g>
<g><path style="opacity:1" fill="#424244" d="M 279.5,227.5 C 282.452,229.41 285.786,230.41 289.5,230.5C 292.079,230.394 294.412,231.061 296.5,232.5C 297.058,233.79 298.058,234.623 299.5,235C 298.833,235.333 298.167,235.667 297.5,236C 299.197,236.384 300.863,236.218 302.5,235.5C 302.833,235.5 303.167,235.5 303.5,235.5C 305.03,238.777 307.363,240.11 310.5,239.5C 311.496,239.414 312.329,239.748 313,240.5C 313.667,343.167 313.667,445.833 313,548.5C 312.313,558.844 310.48,568.844 307.5,578.5C 306.076,580.515 305.41,582.848 305.5,585.5C 303.965,592.216 301.632,598.55 298.5,604.5C 296.755,606.033 295.755,608.033 295.5,610.5C 295.107,612.284 294.441,613.95 293.5,615.5C 292.094,615.973 291.427,616.973 291.5,618.5C 291.672,619.492 291.338,620.158 290.5,620.5C 289.094,620.973 288.427,621.973 288.5,623.5C 287.617,626.704 285.95,629.371 283.5,631.5C 282.5,631.5 281.5,631.5 280.5,631.5C 280.657,632.873 280.49,634.207 280,635.5C 279.331,632.972 278.498,632.972 277.5,635.5C 278.127,636.417 278.461,637.417 278.5,638.5C 278.5,638.833 278.5,639.167 278.5,639.5C 277.167,639.5 276.5,640.167 276.5,641.5C 275.219,644.447 273.219,646.781 270.5,648.5C 269.542,648.953 268.708,649.619 268,650.5C 267.667,650.167 267.333,649.833 267,649.5C 266.51,650.793 266.343,652.127 266.5,653.5C 264.833,655.833 262.833,657.833 260.5,659.5C 256.34,659.325 254.006,661.325 253.5,665.5C 243.955,674.71 233.288,682.377 221.5,688.5C 219.517,688.157 218.183,688.824 217.5,690.5C 211.365,694.565 204.699,697.565 197.5,699.5C 195.549,699.773 194.049,699.107 193,697.5C 191.795,698.071 190.628,698.738 189.5,699.5C 190.025,700.192 190.692,700.692 191.5,701C 190.584,701.278 189.918,701.778 189.5,702.5C 179.63,706.552 169.297,709.218 158.5,710.5C 153.609,710.532 148.943,711.199 144.5,712.5C 131.006,714.77 117.339,714.937 103.5,713C 102.556,710.281 102.223,707.448 102.5,704.5C 108.755,702.372 114.755,699.705 120.5,696.5C 122.017,696.489 123.184,695.823 124,694.5C 125.308,695.151 126.141,694.485 126.5,692.5C 128.404,692.262 129.738,691.262 130.5,689.5C 132.749,688.92 134.415,687.587 135.5,685.5C 141.167,681.833 145.833,677.167 149.5,671.5C 149.833,670.5 150.5,669.833 151.5,669.5C 154.973,667.363 157.306,664.363 158.5,660.5C 161.233,656.124 163.899,651.791 166.5,647.5C 167.906,647.027 168.573,646.027 168.5,644.5C 170.408,643.514 171.408,641.848 171.5,639.5C 173.553,633.725 175.887,628.059 178.5,622.5C 180.834,620.824 181.834,618.491 181.5,615.5C 188.56,592.7 192.726,569.366 194,545.5C 194.333,443.5 194.667,341.5 195,239.5C 195.383,238.944 195.883,238.611 196.5,238.5C 198.027,238.573 199.027,237.906 199.5,236.5C 204.105,233.704 209.105,231.704 214.5,230.5C 218.162,230.277 221.495,229.277 224.5,227.5C 242.797,223.555 261.131,223.555 279.5,227.5 Z"/></g>
<g><path style="opacity:1" fill="#959596" d="M 328.5,225.5 C 330.749,226.08 332.415,227.413 333.5,229.5C 331.251,228.92 329.585,227.587 328.5,225.5 Z"/></g>
<g><path style="opacity:1" fill="#939393" d="M 89.5,225.5 C 89.2624,227.404 88.2624,228.738 86.5,229.5C 86.7376,227.596 87.7376,226.262 89.5,225.5 Z"/></g>
<g><path style="opacity:1" fill="#848484" d="M 224.5,227.5 C 221.495,229.277 218.162,230.277 214.5,230.5C 217.505,228.723 220.838,227.723 224.5,227.5 Z"/></g>
<g><path style="opacity:1" fill="#959595" d="M 279.5,227.5 C 283.116,227.899 286.45,228.899 289.5,230.5C 285.786,230.41 282.452,229.41 279.5,227.5 Z"/></g>
<g><path style="opacity:1" fill="#656565" d="M 176.5,226.5 C 173.859,228.804 171.192,231.138 168.5,233.5C 168.5,232.167 168.5,230.833 168.5,229.5C 170.942,229.881 171.609,229.214 170.5,227.5C 172.396,226.534 174.396,226.201 176.5,226.5 Z"/></g>
<g><path style="opacity:1" fill="#727273" d="M 296.5,232.5 C 298.967,232.755 300.967,233.755 302.5,235.5C 300.863,236.218 299.197,236.384 297.5,236C 298.167,235.667 298.833,235.333 299.5,235C 298.058,234.623 297.058,233.79 296.5,232.5 Z"/></g>
<g><path style="opacity:1" fill="#a0a0a1" d="M 83.5,233.5 C 83.573,235.027 82.9063,236.027 81.5,236.5C 81.427,234.973 82.0937,233.973 83.5,233.5 Z"/></g>
<g><path style="opacity:0.439" fill="#bcbcbc" d="M 166.5,235.5 C 166.573,237.027 165.906,238.027 164.5,238.5C 164.427,236.973 165.094,235.973 166.5,235.5 Z"/></g>
<g><path style="opacity:1" fill="#9d9d9d" d="M 199.5,236.5 C 199.027,237.906 198.027,238.573 196.5,238.5C 196.973,237.094 197.973,236.427 199.5,236.5 Z"/></g>
<g><path style="opacity:1" fill="#797979" d="M 303.5,235.5 C 306.1,236.468 308.434,237.801 310.5,239.5C 307.363,240.11 305.03,238.777 303.5,235.5 Z"/></g>
<g><path style="opacity:1" fill="#797979" d="M 81.5,236.5 C 81.4077,238.848 80.4077,240.514 78.5,241.5C 78.7497,239.326 79.7497,237.659 81.5,236.5 Z"/></g>
<g><path style="opacity:0.376" fill="#c9c9ca" d="M 163.5,239.5 C 163.573,241.027 162.906,242.027 161.5,242.5C 161.427,240.973 162.094,239.973 163.5,239.5 Z"/></g>
<g><path style="opacity:0.125" fill="#c1c1c2" d="M 343.5,239.5 C 344.906,239.973 345.573,240.973 345.5,242.5C 344.094,242.027 343.427,241.027 343.5,239.5 Z"/></g>
<g><path style="opacity:0.063" fill="#e5e6e7" d="M 345.5,245.5 C 346.833,246.167 346.833,246.167 345.5,245.5 Z"/></g>
<g><path style="opacity:1" fill="#707071" d="M 347.5,245.5 C 351.634,245.274 353.301,247.607 352.5,252.5C 350.6,250.381 348.934,248.047 347.5,245.5 Z"/></g>
<g><path style="opacity:1" fill="#c7c7c8" d="M 158.5,247.5 C 158.573,249.027 157.906,250.027 156.5,250.5C 156.427,248.973 157.094,247.973 158.5,247.5 Z"/></g>
<g><path style="opacity:1" fill="#8d8d8e" d="M 352.5,253.5 C 354.048,253.821 354.715,254.821 354.5,256.5C 353.599,255.71 352.932,254.71 352.5,253.5 Z"/></g>
<g><path style="opacity:1" fill="#919192" d="M 155.5,252.5 C 155.204,254.403 154.537,256.07 153.5,257.5C 153.12,255.302 153.787,253.635 155.5,252.5 Z"/></g>
<g><path style="opacity:1" fill="#626263" d="M 72.5,252.5 C 72.4142,253.496 72.7476,254.329 73.5,255C 72.8333,255.333 72.1667,255.667 71.5,256C 72.2931,257.085 72.9598,258.252 73.5,259.5C 72.4099,261.003 71.2433,261.336 70,260.5C 70.5523,263.193 69.3856,265.193 66.5,266.5C 67.9346,261.51 69.9346,256.844 72.5,252.5 Z"/></g>
<g><path style="opacity:1" fill="#6f6f70" d="M 66.5,267.5 C 67.502,270.11 67.3353,272.776 66,275.5C 65.6667,275.167 65.3333,274.833 65,274.5C 64.7679,275.737 64.2679,276.737 63.5,277.5C 63.5902,273.786 64.5902,270.452 66.5,267.5 Z"/></g>
<g><path style="opacity:1" fill="#aaaaaa" d="M 373.5,261.5 C 373.539,269.374 372.872,277.04 371.5,284.5C 371.361,276.618 372.028,268.951 373.5,261.5 Z"/></g>
<g><path style="opacity:1" fill="#969697" d="M 63.5,277.5 C 63.5905,280.152 62.9238,282.485 61.5,284.5C 61.4095,281.848 62.0762,279.515 63.5,277.5 Z"/></g>
<g><path style="opacity:1" fill="#a4a4a5" d="M 361.5,279.5 C 362.972,283.919 363.638,288.586 363.5,293.5C 365.833,293.5 368.167,293.5 370.5,293.5C 368.052,294.473 365.385,294.806 362.5,294.5C 362.249,289.493 361.916,284.493 361.5,279.5 Z"/></g>
<g><path style="opacity:1" fill="#adadad" d="M 155.5,308.5 C 156.906,308.973 157.573,309.973 157.5,311.5C 156.094,311.027 155.427,310.027 155.5,308.5 Z"/></g>
<g><path style="opacity:1" fill="#b7b7b8" d="M 160.5,315.5 C 162.262,316.262 163.262,317.596 163.5,319.5C 161.738,318.738 160.738,317.404 160.5,315.5 Z"/></g>
<g><path style="opacity:1" fill="#676767" d="M 173.5,333.5 C 173.611,334.117 173.944,334.617 174.5,335C 173.669,381.763 173.169,428.596 173,475.5C 171.333,474.267 169.833,472.933 168.5,471.5C 169.583,471.539 170.583,471.873 171.5,472.5C 172.167,426.002 172.833,379.668 173.5,333.5 Z"/></g>
<g><path style="opacity:1" fill="#8c8c8d" d="M 61.5,356.5 C 63.2798,357.99 63.9465,359.99 63.5,362.5C 62.5418,360.698 61.8751,358.698 61.5,356.5 Z"/></g>
<g><path style="opacity:0.627" fill="#dcddde" d="M 73.5,390.5 C 74.8333,391.167 74.8333,391.167 73.5,390.5 Z"/></g>
<g><path style="opacity:0.753" fill="#c4c4c5" d="M 81.5,399.5 C 82.9063,399.973 83.573,400.973 83.5,402.5C 82.0937,402.027 81.427,401.027 81.5,399.5 Z"/></g>
<g><path style="opacity:1" fill="#9d9d9d" d="M 87.5,407.5 C 89.5311,408.539 90.8645,410.205 91.5,412.5C 89.457,411.421 88.1237,409.754 87.5,407.5 Z"/></g>
<g><path style="opacity:0.314" fill="#b8b8b8" d="M 97.5,418.5 C 99.8333,420.167 101.833,422.167 103.5,424.5C 100.5,423.5 98.5,421.5 97.5,418.5 Z"/></g>
<g><path style="opacity:0.376" fill="#bebebf" d="M 103.5,424.5 C 104.5,424.833 105.167,425.5 105.5,426.5C 104.167,426.5 103.5,425.833 103.5,424.5 Z"/></g>
<g><path style="opacity:0.188" fill="#cbcbcc" d="M 105.5,426.5 C 106.5,426.833 107.167,427.5 107.5,428.5C 106.167,428.5 105.5,427.833 105.5,426.5 Z"/></g>
<g><path style="opacity:1" fill="#a9a9a9" d="M 107.5,428.5 C 110.089,429.419 112.089,431.086 113.5,433.5C 110.911,432.581 108.911,430.914 107.5,428.5 Z"/></g>
<g><path style="opacity:0.188" fill="#e3e4e3" d="M 337.5,435.5 C 338.833,436.167 338.833,436.167 337.5,435.5 Z"/></g>
<g><path style="opacity:1" fill="#a5a5a5" d="M 113.5,433.5 C 115.749,434.08 117.415,435.413 118.5,437.5C 116.251,436.92 114.585,435.587 113.5,433.5 Z"/></g>
<g><path style="opacity:1" fill="#929293" d="M 118.5,437.5 C 120.027,437.427 121.027,438.094 121.5,439.5C 119.973,439.573 118.973,438.906 118.5,437.5 Z"/></g>
<g><path style="opacity:0.376" fill="#c7c7c7" d="M 121.5,439.5 C 122.5,439.833 123.167,440.5 123.5,441.5C 122.167,441.5 121.5,440.833 121.5,439.5 Z"/></g>
<g><path style="opacity:1" fill="#696969" d="M 337.5,438.5 C 340.709,440.265 343.709,442.265 346.5,444.5C 344.795,443.465 343.128,443.465 341.5,444.5C 340.019,442.481 338.686,440.481 337.5,438.5 Z"/></g>
<g><path style="opacity:0.188" fill="#e3e4e3" d="M 349.5,443.5 C 350.833,444.167 350.833,444.167 349.5,443.5 Z"/></g>
<g><path style="opacity:1" fill="#424244" d="M 337.5,438.5 C 338.686,440.481 340.019,442.481 341.5,444.5C 343.128,443.465 344.795,443.465 346.5,444.5C 347.492,444.328 348.158,444.662 348.5,445.5C 348.821,447.048 349.821,447.715 351.5,447.5C 352.035,449.446 353.368,450.446 355.5,450.5C 356.492,450.328 357.158,450.662 357.5,451.5C 358.035,453.446 359.368,454.446 361.5,454.5C 361.833,454.5 362.167,454.5 362.5,454.5C 368.351,458.928 374.017,463.594 379.5,468.5C 379.973,469.906 380.973,470.573 382.5,470.5C 382.833,472.833 384.167,474.167 386.5,474.5C 387.167,474.5 387.5,474.833 387.5,475.5C 387.833,476.5 388.5,477.167 389.5,477.5C 389.833,478.5 390.5,479.167 391.5,479.5C 392.5,479.833 393.167,480.5 393.5,481.5C 393.5,482.5 393.5,483.5 393.5,484.5C 394.959,484.433 396.292,484.766 397.5,485.5C 399.5,486.833 401.167,488.5 402.5,490.5C 402.738,492.404 403.738,493.738 405.5,494.5C 404.46,496.719 404.96,498.719 407,500.5C 409.132,501.928 411.299,503.261 413.5,504.5C 417.237,508.302 420.237,512.635 422.5,517.5C 422.427,519.027 423.094,520.027 424.5,520.5C 424.427,522.027 425.094,523.027 426.5,523.5C 427.338,523.842 427.672,524.508 427.5,525.5C 427.427,527.027 428.094,528.027 429.5,528.5C 429.833,529.167 430.167,529.833 430.5,530.5C 430.461,531.583 430.127,532.583 429.5,533.5C 430.167,533.833 430.833,534.167 431.5,534.5C 430.572,535.768 430.405,537.101 431,538.5C 431.333,537.833 431.667,537.167 432,536.5C 432.417,537.756 433.25,538.423 434.5,538.5C 438.576,546.005 441.576,554.005 443.5,562.5C 443.723,566.162 444.723,569.495 446.5,572.5C 447.675,576.042 448.341,579.709 448.5,583.5C 448.362,588.414 449.028,593.081 450.5,597.5C 452.309,614.987 451.309,632.32 447.5,649.5C 445.742,652.854 444.742,656.521 444.5,660.5C 444.072,663.785 443.072,666.785 441.5,669.5C 440.262,671.214 439.595,673.214 439.5,675.5C 438.069,676.78 437.402,678.447 437.5,680.5C 434.949,687.933 431.615,694.933 427.5,701.5C 425.952,701.821 425.285,702.821 425.5,704.5C 420.814,713.211 415.147,721.211 408.5,728.5C 406.914,729.148 405.247,729.648 403.5,730C 402.167,731 402.167,732 403.5,733C 402.552,733.483 401.552,733.649 400.5,733.5C 400.657,734.873 400.49,736.207 400,737.5C 399.282,736.549 398.449,736.383 397.5,737C 398.337,738.011 398.67,739.178 398.5,740.5C 396.833,740.5 395.167,740.5 393.5,740.5C 393.657,741.873 393.49,743.207 393,744.5C 392.282,743.549 391.449,743.383 390.5,744C 387.736,747.219 384.736,750.219 381.5,753C 381.833,753.333 382.167,753.667 382.5,754C 380.888,754.72 379.388,754.554 378,753.5C 377.626,754.416 377.126,755.25 376.5,756C 377.252,756.671 377.586,757.504 377.5,758.5C 376.5,758.833 375.833,759.5 375.5,760.5C 372.725,763.605 369.392,765.938 365.5,767.5C 364.5,767.833 363.833,768.5 363.5,769.5C 358.762,772.898 353.762,775.898 348.5,778.5C 346.62,778.229 345.287,778.896 344.5,780.5C 344.158,781.338 343.492,781.672 342.5,781.5C 340.193,781.986 338.027,781.986 336,781.5C 335.59,782.901 335.09,784.234 334.5,785.5C 334.158,786.338 333.492,786.672 332.5,786.5C 330.62,786.229 329.287,786.896 328.5,788.5C 318.527,793.158 308.194,796.824 297.5,799.5C 295.102,799.259 293.102,799.926 291.5,801.5C 290.833,801.5 290.167,801.5 289.5,801.5C 287.738,801.643 286.071,801.309 284.5,800.5C 284.483,801.394 284.149,802.394 283.5,803.5C 240.462,812.804 197.462,812.804 154.5,803.5C 152.485,802.076 150.152,801.41 147.5,801.5C 147.167,801.5 146.833,801.5 146.5,801.5C 144.485,800.076 142.152,799.41 139.5,799.5C 137.214,799.405 135.214,798.738 133.5,797.5C 131.898,795.926 129.898,795.259 127.5,795.5C 127.167,795.5 126.833,795.5 126.5,795.5C 125.365,793.787 123.698,793.12 121.5,793.5C 121.175,791.868 120.175,790.868 118.5,790.5C 114.431,788.299 110.098,786.965 105.5,786.5C 104.508,786.672 103.842,786.338 103.5,785.5C 102.145,782.482 99.8116,781.149 96.5,781.5C 94.847,781.34 93.5137,780.674 92.5,779.5C 92.0269,778.094 91.0269,777.427 89.5,777.5C 89.0269,776.094 88.0269,775.427 86.5,775.5C 84.1475,774.66 82.1475,773.326 80.5,771.5C 80.0269,770.094 79.0269,769.427 77.5,769.5C 75.5956,769.262 74.2623,768.262 73.5,766.5C 72.7377,764.738 71.4044,763.738 69.5,763.5C 68.4154,761.413 66.7488,760.08 64.5,759.5C 63.5,759.167 62.8333,758.5 62.5,757.5C 62.0269,756.094 61.0269,755.427 59.5,755.5C 59.5,753.5 58.5,752.5 56.5,752.5C 54.1667,750.833 52.1667,748.833 50.5,746.5C 50.5,744.5 49.5,743.5 47.5,743.5C 47.573,741.973 46.9063,740.973 45.5,740.5C 44.5,740.167 43.8333,739.5 43.5,738.5C 43.573,736.973 42.9063,735.973 41.5,735.5C 38.8154,732.81 36.4821,729.81 34.5,726.5C 34.4456,724.368 33.4456,723.035 31.5,722.5C 31.1667,721.833 30.8333,721.167 30.5,720.5C 30.4142,719.504 30.7476,718.671 31.5,718C 28.734,717.309 28.0673,715.809 29.5,713.5C 28.3112,712.571 26.9778,712.238 25.5,712.5C 24.6618,712.158 24.3284,711.492 24.5,710.5C 24.7148,708.821 24.0481,707.821 22.5,707.5C 21.8902,706.609 21.5569,705.609 21.5,704.5C 21.7709,702.62 21.1042,701.287 19.5,700.5C 19.1667,700.5 18.8333,700.5 18.5,700.5C 16.3026,694.574 14.3026,688.574 12.5,682.5C 12.9465,679.99 12.2798,677.99 10.5,676.5C 1.19886,644.08 1.19886,611.746 10.5,579.5C 13.2008,575.75 14.5342,571.417 14.5,566.5C 14.5,566.167 14.5,565.833 14.5,565.5C 16.8337,563.824 17.8337,561.491 17.5,558.5C 19.3221,552.864 21.6554,547.531 24.5,542.5C 26.9305,540.954 28.2639,538.621 28.5,535.5C 29.4097,532.008 31.0764,529.008 33.5,526.5C 34.9063,526.027 35.573,525.027 35.5,523.5C 36.7589,519.975 38.7589,516.975 41.5,514.5C 42.9063,514.027 43.573,513.027 43.5,511.5C 45.2624,510.738 46.2624,509.404 46.5,507.5C 47.9063,507.027 48.573,506.027 48.5,504.5C 49.391,503.89 50.391,503.557 51.5,503.5C 51.5858,504.496 51.2524,505.329 50.5,506C 52.424,507.75 54.0907,509.583 55.5,511.5C 52.1632,517.508 48.8298,523.508 45.5,529.5C 44.3263,530.514 43.6596,531.847 43.5,533.5C 43.5,533.833 43.5,534.167 43.5,534.5C 41.8958,535.287 41.2291,536.62 41.5,538.5C 39.3619,544.915 37.0286,551.249 34.5,557.5C 32.9261,559.102 32.2594,561.102 32.5,563.5C 31.5296,569.698 30.1962,575.698 28.5,581.5C 26.8827,586.916 26.216,592.583 26.5,598.5C 26.5,598.833 26.5,599.167 26.5,599.5C 25.3448,606.655 25.1782,613.988 26,621.5C 26.05,626.127 26.8833,630.46 28.5,634.5C 29.4897,638.772 30.1563,643.106 30.5,647.5C 30.7234,651.162 31.7234,654.495 33.5,657.5C 36.4596,664.766 39.4596,672.099 42.5,679.5C 42.087,682.32 43.087,684.32 45.5,685.5C 47.588,687.336 48.9213,689.669 49.5,692.5C 49.427,694.027 50.0937,695.027 51.5,695.5C 51.427,697.027 52.0937,698.027 53.5,698.5C 53.427,700.027 54.0937,701.027 55.5,701.5C 55.7376,703.404 56.7376,704.738 58.5,705.5C 58.7376,707.404 59.7376,708.738 61.5,709.5C 62.5,709.833 63.1667,710.5 63.5,711.5C 64.0798,713.749 65.4131,715.415 67.5,716.5C 70.5,718.833 73.1667,721.5 75.5,724.5C 76.5846,726.587 78.2512,727.92 80.5,728.5C 81.5,728.833 82.1667,729.5 82.5,730.5C 83.5387,732.531 85.2054,733.864 87.5,734.5C 88.0347,736.446 89.368,737.446 91.5,737.5C 91.8333,738.5 92.5,739.167 93.5,739.5C 95.9687,740.569 98.3021,741.902 100.5,743.5C 100.577,744.75 101.244,745.583 102.5,746C 101.5,746.333 100.5,746.667 99.5,747C 101.055,748.289 102.721,748.956 104.5,749C 103.304,748.346 103.304,747.846 104.5,747.5C 105.736,748.246 107.07,748.579 108.5,748.5C 113.167,750.833 117.833,753.167 122.5,755.5C 123.287,757.104 124.62,757.771 126.5,757.5C 132.5,759.5 138.5,761.5 144.5,763.5C 147.008,765.554 150.008,766.554 153.5,766.5C 155.565,766.517 157.565,766.85 159.5,767.5C 161.78,769.223 164.447,769.889 167.5,769.5C 184.785,771.175 202.119,771.842 219.5,771.5C 224.768,771.113 229.934,771.113 235,771.5C 236.31,770.103 237.81,769.103 239.5,768.5C 242.273,767.343 245.273,766.676 248.5,766.5C 251.228,766.829 253.562,766.163 255.5,764.5C 255.842,763.662 256.508,763.328 257.5,763.5C 260.716,763.655 263.383,762.655 265.5,760.5C 267.698,760.88 269.365,760.213 270.5,758.5C 275.795,755.853 281.128,753.186 286.5,750.5C 288.027,750.573 289.027,749.906 289.5,748.5C 290.899,747.11 292.566,746.11 294.5,745.5C 296.749,744.92 298.415,743.587 299.5,741.5C 301.404,741.262 302.738,740.262 303.5,738.5C 303.833,737.5 304.5,736.833 305.5,736.5C 306.5,736.167 307.167,735.5 307.5,734.5C 309.167,732.167 311.167,730.167 313.5,728.5C 314.833,727.833 315.833,726.833 316.5,725.5C 318.262,724.738 319.262,723.404 319.5,721.5C 321.262,720.738 322.262,719.404 322.5,717.5C 324.822,716.198 326.155,714.198 326.5,711.5C 326.328,710.508 326.662,709.842 327.5,709.5C 328.906,709.027 329.573,708.027 329.5,706.5C 329.557,705.391 329.89,704.391 330.5,703.5C 331.906,703.027 332.573,702.027 332.5,700.5C 332.557,699.391 332.89,698.391 333.5,697.5C 334.496,697.586 335.329,697.252 336,696.5C 336.696,693.522 337.196,690.522 337.5,687.5C 338.924,685.485 339.59,683.152 339.5,680.5C 342.886,660.258 341.886,640.258 336.5,620.5C 336.543,617.413 336.71,614.413 337,611.5C 336.333,612.167 335.667,612.833 335,613.5C 335,612.167 335,610.833 335,609.5C 334.23,610.598 333.397,610.598 332.5,609.5C 330.326,606.485 328.659,603.151 327.5,599.5C 326.545,597.254 325.878,594.921 325.5,592.5C 330.336,575.153 333.336,557.486 334.5,539.5C 334.835,505.654 335.835,471.988 337.5,438.5 Z"/></g>
<g><path style="opacity:1" fill="#8e8e8f" d="M 348.5,445.5 C 349.71,445.932 350.71,446.599 351.5,447.5C 349.821,447.715 348.821,447.048 348.5,445.5 Z"/></g>
<g><path style="opacity:1" fill="#878787" d="M 131.5,446.5 C 133.027,446.427 134.027,447.094 134.5,448.5C 132.973,448.573 131.973,447.906 131.5,446.5 Z"/></g>
<g><path style="opacity:1" fill="#9d9d9d" d="M 337.5,438.5 C 335.835,471.988 334.835,505.654 334.5,539.5C 334.167,505.16 334.5,470.827 335.5,436.5C 336.522,436.855 337.189,437.522 337.5,438.5 Z"/></g>
<g><path style="opacity:1" fill="#8e8e8f" d="M 351.5,447.5 C 353.23,448.026 354.564,449.026 355.5,450.5C 353.368,450.446 352.035,449.446 351.5,447.5 Z"/></g>
<g><path style="opacity:1" fill="#8b8b8b" d="M 134.5,448.5 C 136.027,448.427 137.027,449.094 137.5,450.5C 135.973,450.573 134.973,449.906 134.5,448.5 Z"/></g>
<g><path style="opacity:1" fill="#939394" d="M 137.5,450.5 C 139.404,450.738 140.738,451.738 141.5,453.5C 140.833,453.5 140.167,453.5 139.5,453.5C 138.833,452.5 138.167,451.5 137.5,450.5 Z"/></g>
<g><path style="opacity:1" fill="#969697" d="M 357.5,451.5 C 359.23,452.026 360.564,453.026 361.5,454.5C 359.368,454.446 358.035,453.446 357.5,451.5 Z"/></g>
<g><path style="opacity:0.063" fill="#e5e6e7" d="M 139.5,453.5 C 138.833,454.167 138.833,454.167 139.5,453.5 Z"/></g>
<g><path style="opacity:0.188" fill="#e3e4e3" d="M 362.5,453.5 C 363.833,454.167 363.833,454.167 362.5,453.5 Z"/></g>
<g><path style="opacity:1" fill="#b0b0b1" d="M 141.5,453.5 C 143.027,453.427 144.027,454.094 144.5,455.5C 142.973,455.573 141.973,454.906 141.5,453.5 Z"/></g>
<g><path style="opacity:1" fill="#acacac" d="M 144.5,455.5 C 146.027,455.427 147.027,456.094 147.5,457.5C 145.973,457.573 144.973,456.906 144.5,455.5 Z"/></g>
<g><path style="opacity:0.314" fill="#c5c5c6" d="M 379.5,468.5 C 381.027,468.427 382.027,469.094 382.5,470.5C 380.973,470.573 379.973,469.906 379.5,468.5 Z"/></g>
<g><path style="opacity:1" fill="#a8a8a9" d="M 165.5,469.5 C 167.027,469.427 168.027,470.094 168.5,471.5C 166.973,471.573 165.973,470.906 165.5,469.5 Z"/></g>
<g><path style="opacity:1" fill="#a0a0a0" d="M 382.5,470.5 C 384.167,471.5 385.5,472.833 386.5,474.5C 384.167,474.167 382.833,472.833 382.5,470.5 Z"/></g>
<g><path style="opacity:0.063" fill="#c9c9c9" d="M 387.5,475.5 C 388.833,475.5 389.5,476.167 389.5,477.5C 388.5,477.167 387.833,476.5 387.5,475.5 Z"/></g>
<g><path style="opacity:0.188" fill="#c3c3c3" d="M 389.5,477.5 C 390.833,477.5 391.5,478.167 391.5,479.5C 390.5,479.167 389.833,478.5 389.5,477.5 Z"/></g>
<g><path style="opacity:1" fill="#737373" d="M 393.5,481.5 C 395.341,482.402 396.674,483.736 397.5,485.5C 396.292,484.766 394.959,484.433 393.5,484.5C 393.5,483.5 393.5,482.5 393.5,481.5 Z"/></g>
<g><path style="opacity:1" fill="#a2a2a3" d="M 402.5,490.5 C 404.262,491.262 405.262,492.596 405.5,494.5C 403.738,493.738 402.738,492.404 402.5,490.5 Z"/></g>
<g><path style="opacity:1" fill="#5c5c5d" d="M 405.5,494.5 C 408.645,497.46 411.312,500.793 413.5,504.5C 411.299,503.261 409.132,501.928 407,500.5C 404.96,498.719 404.46,496.719 405.5,494.5 Z"/></g>
<g><path style="opacity:1" fill="#c9c9c9" d="M 51.5,503.5 C 50.391,503.557 49.391,503.89 48.5,504.5C 49.0527,502.448 50.0527,502.115 51.5,503.5 Z"/></g>
<g><path style="opacity:0.251" fill="#e2e3e2" d="M 56.5,504.5 C 57.8333,505.167 57.8333,505.167 56.5,504.5 Z"/></g>
<g><path style="opacity:0.125" fill="#e4e5e5" d="M 416.5,504.5 C 417.833,505.167 417.833,505.167 416.5,504.5 Z"/></g>
<g><path style="opacity:1" fill="#989898" d="M 48.5,504.5 C 48.573,506.027 47.9063,507.027 46.5,507.5C 46.427,505.973 47.0937,504.973 48.5,504.5 Z"/></g>
<g><path style="opacity:1" fill="#666666" d="M 51.5,503.5 C 53.3925,504.702 55.2258,506.035 57,507.5C 57.3478,509.14 56.8478,510.473 55.5,511.5C 54.0907,509.583 52.424,507.75 50.5,506C 51.2524,505.329 51.5858,504.496 51.5,503.5 Z"/></g>
<g><path style="opacity:0.188" fill="#e3e4e5" d="M 417.5,506.5 C 418.833,507.167 418.833,507.167 417.5,506.5 Z"/></g>
<g><path style="opacity:1" fill="#8a8a8b" d="M 46.5,507.5 C 46.2624,509.404 45.2624,510.738 43.5,511.5C 43.7376,509.596 44.7376,508.262 46.5,507.5 Z"/></g>
<g><path style="opacity:0.753" fill="#dadbdb" d="M 58.5,509.5 C 59.8333,510.167 59.8333,510.167 58.5,509.5 Z"/></g>
<g><path style="opacity:0.251" fill="#e2e3e2" d="M 58.5,510.5 C 57.8333,511.167 57.8333,511.167 58.5,510.5 Z"/></g>
<g><path style="opacity:1" fill="#8e8e8e" d="M 43.5,511.5 C 43.573,513.027 42.9063,514.027 41.5,514.5C 41.427,512.973 42.0937,511.973 43.5,511.5 Z"/></g>
<g><path style="opacity:1" fill="#8e8e8e" d="M 422.5,517.5 C 423.906,517.973 424.573,518.973 424.5,520.5C 423.094,520.027 422.427,519.027 422.5,517.5 Z"/></g>
<g><path style="opacity:1" fill="#a5a5a6" d="M 424.5,520.5 C 425.906,520.973 426.573,521.973 426.5,523.5C 425.094,523.027 424.427,522.027 424.5,520.5 Z"/></g>
<g><path style="opacity:1" fill="#979798" d="M 35.5,523.5 C 35.573,525.027 34.9063,526.027 33.5,526.5C 33.427,524.973 34.0937,523.973 35.5,523.5 Z"/></g>
<g><path style="opacity:1" fill="#aeaeae" d="M 427.5,525.5 C 428.906,525.973 429.573,526.973 429.5,528.5C 428.094,528.027 427.427,527.027 427.5,525.5 Z"/></g>
<g><path style="opacity:1" fill="#b1b1b2" d="M 45.5,529.5 C 45.7709,531.38 45.1042,532.713 43.5,533.5C 43.6596,531.847 44.3263,530.514 45.5,529.5 Z"/></g>
<g><path style="opacity:0.188" fill="#e3e4e5" d="M 26.5,536.5 C 25.8333,535.167 25.8333,535.167 26.5,536.5 Z"/></g>
<g><path style="opacity:1" fill="#646465" d="M 430.5,530.5 C 432.341,532.849 433.674,535.515 434.5,538.5C 433.25,538.423 432.417,537.756 432,536.5C 431.667,537.167 431.333,537.833 431,538.5C 430.405,537.101 430.572,535.768 431.5,534.5C 430.833,534.167 430.167,533.833 429.5,533.5C 430.127,532.583 430.461,531.583 430.5,530.5 Z"/></g>
<g><path style="opacity:1" fill="#afafaf" d="M 43.5,534.5 C 43.3404,536.153 42.6737,537.486 41.5,538.5C 41.2291,536.62 41.8958,535.287 43.5,534.5 Z"/></g>
<g><path style="opacity:1" fill="#7b7b7b" d="M 28.5,535.5 C 28.2639,538.621 26.9305,540.954 24.5,542.5C 25.1667,540.5 25.8333,538.5 26.5,536.5C 27.1667,536.167 27.8333,535.833 28.5,535.5 Z"/></g>
<g><path style="opacity:1" fill="#959596" d="M 34.5,557.5 C 34.405,559.786 33.7384,561.786 32.5,563.5C 32.2594,561.102 32.9261,559.102 34.5,557.5 Z"/></g>
<g><path style="opacity:1" fill="#8c8c8d" d="M 17.5,558.5 C 17.8337,561.491 16.8337,563.824 14.5,565.5C 14.9348,562.843 15.9348,560.509 17.5,558.5 Z"/></g>
<g><path style="opacity:1" fill="#9e9e9e" d="M 443.5,562.5 C 445.277,565.505 446.277,568.838 446.5,572.5C 444.723,569.495 443.723,566.162 443.5,562.5 Z"/></g>
<g><path style="opacity:1" fill="#727272" d="M 14.5,566.5 C 14.5342,571.417 13.2008,575.75 10.5,579.5C 11.0569,574.835 12.3902,570.502 14.5,566.5 Z"/></g>
<g><path style="opacity:0.063" fill="#bbbbbc" d="M 307.5,578.5 C 307.59,581.152 306.924,583.485 305.5,585.5C 305.41,582.848 306.076,580.515 307.5,578.5 Z"/></g>
<g><path style="opacity:1" fill="#969697" d="M 28.5,581.5 C 28.2832,587.36 27.6165,593.027 26.5,598.5C 26.216,592.583 26.8827,586.916 28.5,581.5 Z"/></g>
<g><path style="opacity:1" fill="#b2b2b2" d="M 325.5,592.5 C 325.878,594.921 326.545,597.254 327.5,599.5C 324.782,597.618 324.115,595.285 325.5,592.5 Z"/></g>
<g><path style="opacity:1" fill="#8e8e8f" d="M 448.5,583.5 C 449.972,587.919 450.638,592.586 450.5,597.5C 449.028,593.081 448.362,588.414 448.5,583.5 Z"/></g>
<g><path style="opacity:1" fill="#8b8b8b" d="M 26.5,599.5 C 26.2806,611.228 26.9473,622.894 28.5,634.5C 26.8833,630.46 26.05,626.127 26,621.5C 25.1782,613.988 25.3448,606.655 26.5,599.5 Z"/></g>
<g><path style="opacity:0.063" fill="#e5e6e5" d="M 325.5,606.5 C 326.833,607.167 326.833,607.167 325.5,606.5 Z"/></g>
<g><path style="opacity:1" fill="#aaaaaa" d="M 298.5,604.5 C 298.245,606.967 297.245,608.967 295.5,610.5C 295.755,608.033 296.755,606.033 298.5,604.5 Z"/></g>
<g><path style="opacity:1" fill="#6b6b6c" d="M 332.5,609.5 C 333.397,610.598 334.23,610.598 335,609.5C 335,610.833 335,612.167 335,613.5C 335.667,612.833 336.333,612.167 337,611.5C 336.71,614.413 336.543,617.413 336.5,620.5C 334.792,617.05 333.459,613.383 332.5,609.5 Z"/></g>
<g><path style="opacity:1" fill="#bdbdbe" d="M 293.5,615.5 C 293.573,617.027 292.906,618.027 291.5,618.5C 291.427,616.973 292.094,615.973 293.5,615.5 Z"/></g>
<g><path style="opacity:1" fill="#8b8b8c" d="M 181.5,615.5 C 181.834,618.491 180.834,620.824 178.5,622.5C 178.935,619.843 179.935,617.509 181.5,615.5 Z"/></g>
<g><path style="opacity:1" fill="#a2a2a3" d="M 290.5,620.5 C 290.573,622.027 289.906,623.027 288.5,623.5C 288.427,621.973 289.094,620.973 290.5,620.5 Z"/></g>
<g><path style="opacity:1" fill="#b1b1b1" d="M 315.5,623.5 C 314.5,622.167 313.5,622.167 312.5,623.5C 313.5,619.5 314.5,619.5 315.5,623.5 Z"/></g>
<g><path style="opacity:1" fill="#434345" d="M 315.5,623.5 C 316.566,625.701 317.233,628.035 317.5,630.5C 317.565,633.428 318.232,636.095 319.5,638.5C 320.984,643.925 321.651,649.591 321.5,655.5C 321.651,661.409 320.984,667.075 319.5,672.5C 318.388,674.599 317.721,676.933 317.5,679.5C 317.768,681.099 317.434,682.432 316.5,683.5C 315.069,684.78 314.402,686.447 314.5,688.5C 313.122,694.26 310.455,699.26 306.5,703.5C 305.5,703.5 304.5,703.5 303.5,703.5C 303.5,704.833 303.5,706.167 303.5,707.5C 302.094,707.973 301.427,708.973 301.5,710.5C 300.5,710.833 299.833,711.5 299.5,712.5C 299.167,713.5 298.5,714.167 297.5,714.5C 296.167,715.167 295.167,716.167 294.5,717.5C 294.5,717.833 294.5,718.167 294.5,718.5C 292.596,718.738 291.262,719.738 290.5,721.5C 289.415,723.587 287.749,724.92 285.5,725.5C 281.183,724.492 278.85,726.159 278.5,730.5C 275.322,733.258 271.655,735.258 267.5,736.5C 265.973,736.427 264.973,737.094 264.5,738.5C 255.35,742.882 245.683,745.882 235.5,747.5C 234.508,747.328 233.842,747.662 233.5,748.5C 207.251,753.181 181.251,752.181 155.5,745.5C 152.916,743.528 149.916,742.528 146.5,742.5C 146.167,742.5 145.833,742.5 145.5,742.5C 142.943,740.393 139.943,739.059 136.5,738.5C 137.091,737.849 137.757,737.182 138.5,736.5C 138.291,735.914 137.957,735.414 137.5,735C 140.036,734.814 142.369,734.314 144.5,733.5C 145.5,733.5 146.5,733.5 147.5,733.5C 151.79,733.802 155.79,733.136 159.5,731.5C 162.054,730.612 164.721,730.279 167.5,730.5C 170.141,731.263 172.808,731.43 175.5,731C 174.5,730.667 173.5,730.333 172.5,730C 175.191,729.844 177.524,729.011 179.5,727.5C 180.568,726.566 181.901,726.232 183.5,726.5C 185.898,726.741 187.898,726.074 189.5,724.5C 189.833,724.5 190.167,724.5 190.5,724.5C 194.319,724.117 197.986,723.117 201.5,721.5C 203.733,722.016 205.4,721.016 206.5,718.5C 206.833,718.5 207.167,718.5 207.5,718.5C 209.153,718.34 210.486,717.674 211.5,716.5C 215.645,714.264 219.978,712.264 224.5,710.5C 226.027,710.573 227.027,709.906 227.5,708.5C 229.05,707.559 230.716,706.893 232.5,706.5C 234.848,706.408 236.514,705.408 237.5,703.5C 239.027,703.573 240.027,702.906 240.5,701.5C 242.027,701.573 243.027,700.906 243.5,699.5C 245.027,699.573 246.027,698.906 246.5,697.5C 247.29,696.599 248.29,695.932 249.5,695.5C 251.853,694.66 253.853,693.326 255.5,691.5C 256.167,690.167 257.167,689.167 258.5,688.5C 261.989,687.687 264.656,685.687 266.5,682.5C 267.167,681.167 268.167,680.167 269.5,679.5C 275.167,675.833 279.833,671.167 283.5,665.5C 284.167,664.167 285.167,663.167 286.5,662.5C 290.628,659.71 293.628,656.043 295.5,651.5C 295.328,650.508 295.662,649.842 296.5,649.5C 298.587,648.415 299.92,646.749 300.5,644.5C 300.328,643.508 300.662,642.842 301.5,642.5C 302.906,642.027 303.573,641.027 303.5,639.5C 304.906,639.027 305.573,638.027 305.5,636.5C 305.328,635.508 305.662,634.842 306.5,634.5C 307.906,634.027 308.573,633.027 308.5,631.5C 309.399,628.605 310.733,625.938 312.5,623.5C 313.5,622.167 314.5,622.167 315.5,623.5 Z"/></g>
<g><path style="opacity:0.125" fill="#e4e5e5" d="M 289.5,628.5 C 290.833,629.167 290.833,629.167 289.5,628.5 Z"/></g>
<g><path style="opacity:1" fill="#666667" d="M 283.5,631.5 C 282.567,634.37 280.9,636.704 278.5,638.5C 278.461,637.417 278.127,636.417 277.5,635.5C 278.498,632.972 279.331,632.972 280,635.5C 280.49,634.207 280.657,632.873 280.5,631.5C 281.5,631.5 282.5,631.5 283.5,631.5 Z"/></g>
<g><path style="opacity:1" fill="#a6a6a7" d="M 308.5,631.5 C 308.573,633.027 307.906,634.027 306.5,634.5C 306.427,632.973 307.094,631.973 308.5,631.5 Z"/></g>
<g><path style="opacity:1" fill="#99999a" d="M 317.5,630.5 C 319.04,632.838 319.706,635.505 319.5,638.5C 318.232,636.095 317.565,633.428 317.5,630.5 Z"/></g>
<g><path style="opacity:1" fill="#a7a7a7" d="M 305.5,636.5 C 305.573,638.027 304.906,639.027 303.5,639.5C 303.427,637.973 304.094,636.973 305.5,636.5 Z"/></g>
<g><path style="opacity:1" fill="#b0b0b0" d="M 278.5,639.5 C 278.167,640.5 277.5,641.167 276.5,641.5C 276.5,640.167 277.167,639.5 278.5,639.5 Z"/></g>
<g><path style="opacity:1" fill="#aaaaaa" d="M 303.5,639.5 C 303.573,641.027 302.906,642.027 301.5,642.5C 301.427,640.973 302.094,639.973 303.5,639.5 Z"/></g>
<g><path style="opacity:1" fill="#79797a" d="M 171.5,639.5 C 171.408,641.848 170.408,643.514 168.5,644.5C 168.75,642.326 169.75,640.659 171.5,639.5 Z"/></g>
<g><path style="opacity:1" fill="#c0c0c0" d="M 168.5,644.5 C 168.573,646.027 167.906,647.027 166.5,647.5C 166.427,645.973 167.094,644.973 168.5,644.5 Z"/></g>
<g><path style="opacity:1" fill="#a9a9aa" d="M 300.5,644.5 C 299.92,646.749 298.587,648.415 296.5,649.5C 297.08,647.251 298.413,645.585 300.5,644.5 Z"/></g>
<g><path style="opacity:1" fill="#909090" d="M 270.5,648.5 C 269.92,650.749 268.587,652.415 266.5,653.5C 266.343,652.127 266.51,650.793 267,649.5C 267.333,649.833 267.667,650.167 268,650.5C 268.708,649.619 269.542,648.953 270.5,648.5 Z"/></g>
<g><path style="opacity:0.188" fill="#bebebe" d="M 447.5,649.5 C 447.258,653.479 446.258,657.146 444.5,660.5C 444.742,656.521 445.742,652.854 447.5,649.5 Z"/></g>
<g><path style="opacity:1" fill="#939393" d="M 30.5,647.5 C 32.2766,650.505 33.2766,653.838 33.5,657.5C 31.7234,654.495 30.7234,651.162 30.5,647.5 Z"/></g>
<g><path style="opacity:1" fill="#7f7f80" d="M 295.5,651.5 C 293.628,656.043 290.628,659.71 286.5,662.5C 289.129,658.537 292.129,654.871 295.5,651.5 Z"/></g>
<g><path style="opacity:1" fill="#757576" d="M 260.5,659.5 C 259.833,660.5 259.167,661.5 258.5,662.5C 257.078,663.925 255.411,664.925 253.5,665.5C 254.006,661.325 256.34,659.325 260.5,659.5 Z"/></g>
<g><path style="opacity:0.627" fill="#dcddde" d="M 258.5,662.5 C 259.833,663.167 259.833,663.167 258.5,662.5 Z"/></g>
<g><path style="opacity:1" fill="#909090" d="M 158.5,660.5 C 157.306,664.363 154.973,667.363 151.5,669.5C 153.458,666.208 155.791,663.208 158.5,660.5 Z"/></g>
<g><path style="opacity:0.125" fill="#e4e5e5" d="M 255.5,666.5 C 256.833,667.167 256.833,667.167 255.5,666.5 Z"/></g>
<g><path style="opacity:1" fill="#989899" d="M 283.5,665.5 C 279.833,671.167 275.167,675.833 269.5,679.5C 273.833,674.5 278.5,669.833 283.5,665.5 Z"/></g>
<g><path style="opacity:0.314" fill="#b4b4b5" d="M 441.5,669.5 C 441.741,671.898 441.074,673.898 439.5,675.5C 439.595,673.214 440.262,671.214 441.5,669.5 Z"/></g>
<g><path style="opacity:0.063" fill="#e5e6e5" d="M 141.5,675.5 C 142.833,676.167 142.833,676.167 141.5,675.5 Z"/></g>
<g><path style="opacity:1" fill="#adadae" d="M 319.5,672.5 C 319.829,675.228 319.163,677.562 317.5,679.5C 317.721,676.933 318.388,674.599 319.5,672.5 Z"/></g>
<g><path style="opacity:1" fill="#888888" d="M 10.5,676.5 C 12.2798,677.99 12.9465,679.99 12.5,682.5C 11.2616,680.786 10.595,678.786 10.5,676.5 Z"/></g>
<g><path style="opacity:1" fill="#929293" d="M 149.5,671.5 C 145.833,677.167 141.167,681.833 135.5,685.5C 136.5,684.167 137.5,682.833 138.5,681.5C 142.167,678.167 145.833,674.833 149.5,671.5 Z"/></g>
<g><path style="opacity:1" fill="#a1a1a2" d="M 439.5,675.5 C 439.598,677.553 438.931,679.22 437.5,680.5C 437.402,678.447 438.069,676.78 439.5,675.5 Z"/></g>
<g><path style="opacity:0.125" fill="#e4e5e5" d="M 138.5,681.5 C 137.833,680.167 137.833,680.167 138.5,681.5 Z"/></g>
<g><path style="opacity:1" fill="#7b7b7b" d="M 42.5,679.5 C 44.0075,681.181 45.0075,683.181 45.5,685.5C 43.087,684.32 42.087,682.32 42.5,679.5 Z"/></g>
<g><path style="opacity:1" fill="#848485" d="M 266.5,682.5 C 264.656,685.687 261.989,687.687 258.5,688.5C 260.878,686.122 263.545,684.122 266.5,682.5 Z"/></g>
<g><path style="opacity:1" fill="#969696" d="M 135.5,685.5 C 134.415,687.587 132.749,688.92 130.5,689.5C 131.585,687.413 133.251,686.08 135.5,685.5 Z"/></g>
<g><path style="opacity:1" fill="#999999" d="M 316.5,683.5 C 316.598,685.553 315.931,687.22 314.5,688.5C 314.402,686.447 315.069,684.78 316.5,683.5 Z"/></g>
<g><path style="opacity:1" fill="#929292" d="M 339.5,680.5 C 339.59,683.152 338.924,685.485 337.5,687.5C 337.41,684.848 338.076,682.515 339.5,680.5 Z"/></g>
<g><path style="opacity:1" fill="#89898a" d="M 221.5,688.5 C 220.486,689.674 219.153,690.34 217.5,690.5C 218.183,688.824 219.517,688.157 221.5,688.5 Z"/></g>
<g><path style="opacity:1" fill="#8d8d8e" d="M 130.5,689.5 C 129.738,691.262 128.404,692.262 126.5,692.5C 127.262,690.738 128.596,689.738 130.5,689.5 Z"/></g>
<g><path style="opacity:1" fill="#a6a6a6" d="M 255.5,691.5 C 253.853,693.326 251.853,694.66 249.5,695.5C 250.802,693.178 252.802,691.845 255.5,691.5 Z"/></g>
<g><path style="opacity:1" fill="#a1a1a1" d="M 49.5,692.5 C 50.9063,692.973 51.573,693.973 51.5,695.5C 50.0937,695.027 49.427,694.027 49.5,692.5 Z"/></g>
<g><path style="opacity:1" fill="#767677" d="M 126.5,692.5 C 126.141,694.485 125.308,695.151 124,694.5C 123.184,695.823 122.017,696.489 120.5,696.5C 121.802,694.178 123.802,692.845 126.5,692.5 Z"/></g>
<g><path style="opacity:1" fill="#6e6e6f" d="M 337.5,687.5 C 337.196,690.522 336.696,693.522 336,696.5C 335.329,697.252 334.496,697.586 333.5,697.5C 334.658,694.011 335.991,690.678 337.5,687.5 Z"/></g>
<g><path style="opacity:1" fill="#a1a1a1" d="M 51.5,695.5 C 52.9063,695.973 53.573,696.973 53.5,698.5C 52.0937,698.027 51.427,697.027 51.5,695.5 Z"/></g>
<g><path style="opacity:1" fill="#676767" d="M 197.5,699.5 C 195.208,701.267 192.542,702.267 189.5,702.5C 189.918,701.778 190.584,701.278 191.5,701C 190.692,700.692 190.025,700.192 189.5,699.5C 190.628,698.738 191.795,698.071 193,697.5C 194.049,699.107 195.549,699.773 197.5,699.5 Z"/></g>
<g><path style="opacity:1" fill="#aaaaaa" d="M 246.5,697.5 C 246.027,698.906 245.027,699.573 243.5,699.5C 243.973,698.094 244.973,697.427 246.5,697.5 Z"/></g>
<g><path style="opacity:0.063" fill="#e5e6e5" d="M 18.5,700.5 C 17.8333,701.167 17.8333,701.167 18.5,700.5 Z"/></g>
<g><path style="opacity:1" fill="#979797" d="M 53.5,698.5 C 54.9063,698.973 55.573,699.973 55.5,701.5C 54.0937,701.027 53.427,700.027 53.5,698.5 Z"/></g>
<g><path style="opacity:1" fill="#9f9fa0" d="M 243.5,699.5 C 243.027,700.906 242.027,701.573 240.5,701.5C 240.973,700.094 241.973,699.427 243.5,699.5 Z"/></g>
<g><path style="opacity:1" fill="#9c9c9c" d="M 19.5,700.5 C 21.1042,701.287 21.7709,702.62 21.5,704.5C 20.3263,703.486 19.6596,702.153 19.5,700.5 Z"/></g>
<g><path style="opacity:1" fill="#939394" d="M 240.5,701.5 C 240.027,702.906 239.027,703.573 237.5,703.5C 237.973,702.094 238.973,701.427 240.5,701.5 Z"/></g>
<g><path style="opacity:1" fill="#bebebe" d="M 332.5,700.5 C 332.573,702.027 331.906,703.027 330.5,703.5C 330.427,701.973 331.094,700.973 332.5,700.5 Z"/></g>
<g><path style="opacity:1" fill="#8e8e8e" d="M 427.5,701.5 C 427.068,702.71 426.401,703.71 425.5,704.5C 425.285,702.821 425.952,701.821 427.5,701.5 Z"/></g>
<g><path style="opacity:1" fill="#989898" d="M 55.5,701.5 C 57.2624,702.262 58.2624,703.596 58.5,705.5C 56.7376,704.738 55.7376,703.404 55.5,701.5 Z"/></g>
<g><path style="opacity:1" fill="#787879" d="M 306.5,703.5 C 306.262,705.404 305.262,706.738 303.5,707.5C 303.5,706.167 303.5,704.833 303.5,703.5C 304.5,703.5 305.5,703.5 306.5,703.5 Z"/></g>
<g><path style="opacity:1" fill="#7a7a7b" d="M 237.5,703.5 C 236.514,705.408 234.848,706.408 232.5,706.5C 233.659,704.75 235.326,703.75 237.5,703.5 Z"/></g>
<g><path style="opacity:1" fill="#949494" d="M 58.5,705.5 C 60.2624,706.262 61.2624,707.596 61.5,709.5C 59.7376,708.738 58.7376,707.404 58.5,705.5 Z"/></g>
<g><path style="opacity:0.125" fill="#e4e5e5" d="M 62.5,706.5 C 63.8333,707.167 63.8333,707.167 62.5,706.5 Z"/></g>
<g><path style="opacity:1" fill="#939394" d="M 22.5,707.5 C 24.0481,707.821 24.7148,708.821 24.5,710.5C 23.5987,709.71 22.9321,708.71 22.5,707.5 Z"/></g>
<g><path style="opacity:0.502" fill="#bababa" d="M 303.5,707.5 C 303.573,709.027 302.906,710.027 301.5,710.5C 301.427,708.973 302.094,707.973 303.5,707.5 Z"/></g>
<g><path style="opacity:1" fill="#9d9d9d" d="M 329.5,706.5 C 329.573,708.027 328.906,709.027 327.5,709.5C 327.427,707.973 328.094,706.973 329.5,706.5 Z"/></g>
<g><path style="opacity:1" fill="#b3b3b4" d="M 227.5,708.5 C 227.027,709.906 226.027,710.573 224.5,710.5C 224.973,709.094 225.973,708.427 227.5,708.5 Z"/></g>
<g><path style="opacity:1" fill="#a7a7a8" d="M 158.5,710.5 C 154.081,711.972 149.414,712.638 144.5,712.5C 148.943,711.199 153.609,710.532 158.5,710.5 Z"/></g>
<g><path style="opacity:0.125" fill="#d3d3d4" d="M 301.5,710.5 C 301.5,711.833 300.833,712.5 299.5,712.5C 299.833,711.5 300.5,710.833 301.5,710.5 Z"/></g>
<g><path style="opacity:1" fill="#686868" d="M 25.5,712.5 C 26.9778,712.238 28.3112,712.571 29.5,713.5C 28.0673,715.809 28.734,717.309 31.5,718C 30.7476,718.671 30.4142,719.504 30.5,720.5C 28.347,718.206 26.6803,715.54 25.5,712.5 Z"/></g>
<g><path style="opacity:1" fill="#9d9d9e" d="M 63.5,711.5 C 65.5869,712.585 66.9202,714.251 67.5,716.5C 65.4131,715.415 64.0798,713.749 63.5,711.5 Z"/></g>
<g><path style="opacity:1" fill="#989898" d="M 326.5,711.5 C 326.155,714.198 324.822,716.198 322.5,717.5C 323.34,715.147 324.674,713.147 326.5,711.5 Z"/></g>
<g><path style="opacity:0.063" fill="#e5e6e5" d="M 70.5,715.5 C 71.8333,716.167 71.8333,716.167 70.5,715.5 Z"/></g>
<g><path style="opacity:0.376" fill="#c2c2c3" d="M 297.5,714.5 C 297.5,716.5 296.5,717.5 294.5,717.5C 295.167,716.167 296.167,715.167 297.5,714.5 Z"/></g>
<g><path style="opacity:1" fill="#afafb0" d="M 211.5,716.5 C 210.486,717.674 209.153,718.34 207.5,718.5C 208.287,716.896 209.62,716.229 211.5,716.5 Z"/></g>
<g><path style="opacity:0.565" fill="#c7c7c8" d="M 294.5,718.5 C 293.738,720.262 292.404,721.262 290.5,721.5C 291.262,719.738 292.596,718.738 294.5,718.5 Z"/></g>
<g><path style="opacity:1" fill="#99999a" d="M 322.5,717.5 C 322.262,719.404 321.262,720.738 319.5,721.5C 319.738,719.596 320.738,718.262 322.5,717.5 Z"/></g>
<g><path style="opacity:1" fill="#949495" d="M 31.5,722.5 C 33.4456,723.035 34.4456,724.368 34.5,726.5C 33.0256,725.564 32.0256,724.23 31.5,722.5 Z"/></g>
<g><path style="opacity:1" fill="#777777" d="M 206.5,718.5 C 205.4,721.016 203.733,722.016 201.5,721.5C 197.986,723.117 194.319,724.117 190.5,724.5C 195.681,722.325 201.014,720.325 206.5,718.5 Z"/></g>
<g><path style="opacity:1" fill="#8d8d8d" d="M 319.5,721.5 C 319.262,723.404 318.262,724.738 316.5,725.5C 316.738,723.596 317.738,722.262 319.5,721.5 Z"/></g>
<g><path style="opacity:0.627" fill="#b7b7b8" d="M 75.5,724.5 C 77.7488,725.08 79.4154,726.413 80.5,728.5C 78.2512,727.92 76.5846,726.587 75.5,724.5 Z"/></g>
<g><path style="opacity:1" fill="#9c9c9d" d="M 189.5,724.5 C 187.898,726.074 185.898,726.741 183.5,726.5C 185.214,725.262 187.214,724.595 189.5,724.5 Z"/></g>
<g><path style="opacity:1" fill="#6e6e6e" d="M 285.5,725.5 C 283.45,727.547 281.117,729.214 278.5,730.5C 278.85,726.159 281.183,724.492 285.5,725.5 Z"/></g>
<g><path style="opacity:1" fill="#bababa" d="M 316.5,725.5 C 315.833,726.833 314.833,727.833 313.5,728.5C 313.5,726.5 314.5,725.5 316.5,725.5 Z"/></g>
<g><path style="opacity:1" fill="#646465" d="M 179.5,727.5 C 177.524,729.011 175.191,729.844 172.5,730C 173.5,730.333 174.5,730.667 175.5,731C 172.808,731.43 170.141,731.263 167.5,730.5C 171.264,729.008 175.264,728.008 179.5,727.5 Z"/></g>
<g><path style="opacity:1" fill="#9d9d9e" d="M 82.5,730.5 C 84.754,731.124 86.4206,732.457 87.5,734.5C 85.2054,733.864 83.5387,732.531 82.5,730.5 Z"/></g>
<g><path style="opacity:1" fill="#919192" d="M 159.5,731.5 C 155.79,733.136 151.79,733.802 147.5,733.5C 151.295,732.383 155.295,731.717 159.5,731.5 Z"/></g>
<g><path style="opacity:1" fill="#6e6e6f" d="M 408.5,728.5 C 405.537,732.798 402.203,736.798 398.5,740.5C 398.67,739.178 398.337,738.011 397.5,737C 398.449,736.383 399.282,736.549 400,737.5C 400.49,736.207 400.657,734.873 400.5,733.5C 401.552,733.649 402.552,733.483 403.5,733C 402.167,732 402.167,731 403.5,730C 405.247,729.648 406.914,729.148 408.5,728.5 Z"/></g>
<g><path style="opacity:1" fill="#c6c6c6" d="M 307.5,734.5 C 307.167,735.5 306.5,736.167 305.5,736.5C 305.5,735.167 306.167,734.5 307.5,734.5 Z"/></g>
<g><path style="opacity:1" fill="#696969" d="M 144.5,733.5 C 142.369,734.314 140.036,734.814 137.5,735C 137.957,735.414 138.291,735.914 138.5,736.5C 137.757,737.182 137.091,737.849 136.5,738.5C 136.167,738.5 135.833,738.5 135.5,738.5C 132.699,737.623 130.032,736.456 127.5,735C 133.112,733.869 138.779,733.369 144.5,733.5 Z"/></g>
<g><path style="opacity:1" fill="#b1b1b1" d="M 41.5,735.5 C 42.9063,735.973 43.573,736.973 43.5,738.5C 42.0937,738.027 41.427,737.027 41.5,735.5 Z"/></g>
<g><path style="opacity:1" fill="#969697" d="M 87.5,734.5 C 89.2303,735.026 90.5637,736.026 91.5,737.5C 89.368,737.446 88.0347,736.446 87.5,734.5 Z"/></g>
<g><path style="opacity:0.376" fill="#c4c4c5" d="M 91.5,737.5 C 92.8333,737.5 93.5,738.167 93.5,739.5C 92.5,739.167 91.8333,738.5 91.5,737.5 Z"/></g>
<g><path style="opacity:0.502" fill="#bebebe" d="M 267.5,736.5 C 267.027,737.906 266.027,738.573 264.5,738.5C 264.973,737.094 265.973,736.427 267.5,736.5 Z"/></g>
<g><path style="opacity:1" fill="#8e8e8e" d="M 135.5,738.5 C 135.833,738.5 136.167,738.5 136.5,738.5C 139.943,739.059 142.943,740.393 145.5,742.5C 141.851,741.733 138.518,740.4 135.5,738.5 Z"/></g>
<g><path style="opacity:1" fill="#8a8a8a" d="M 303.5,738.5 C 302.738,740.262 301.404,741.262 299.5,741.5C 300.262,739.738 301.596,738.738 303.5,738.5 Z"/></g>
<g><path style="opacity:0.439" fill="#c1c1c3" d="M 45.5,740.5 C 46.9063,740.973 47.573,741.973 47.5,743.5C 46.0937,743.027 45.427,742.027 45.5,740.5 Z"/></g>
<g><path style="opacity:1" fill="#949495" d="M 146.5,742.5 C 149.916,742.528 152.916,743.528 155.5,745.5C 152.215,745.072 149.215,744.072 146.5,742.5 Z"/></g>
<g><path style="opacity:1" fill="#a9a9a9" d="M 47.5,743.5 C 49.5,743.5 50.5,744.5 50.5,746.5C 49.1667,745.833 48.1667,744.833 47.5,743.5 Z"/></g>
<g><path style="opacity:1" fill="#848485" d="M 299.5,741.5 C 298.415,743.587 296.749,744.92 294.5,745.5C 295.585,743.413 297.251,742.08 299.5,741.5 Z"/></g>
<g><path style="opacity:0.314" fill="#e1e2e2" d="M 47.5,746.5 C 48.8333,747.167 48.8333,747.167 47.5,746.5 Z"/></g>
<g><path style="opacity:1" fill="#666667" d="M 100.5,743.5 C 103.203,745.181 105.869,746.847 108.5,748.5C 107.07,748.579 105.736,748.246 104.5,747.5C 103.304,747.846 103.304,748.346 104.5,749C 102.721,748.956 101.055,748.289 99.5,747C 100.5,746.667 101.5,746.333 102.5,746C 101.244,745.583 100.577,744.75 100.5,743.5 Z"/></g>
<g><path style="opacity:1" fill="#cececf" d="M 233.5,748.5 C 233.842,747.662 234.508,747.328 235.5,747.5C 235.591,749.698 234.925,750.031 233.5,748.5 Z"/></g>
<g><path style="opacity:1" fill="#9f9f9f" d="M 289.5,748.5 C 289.027,749.906 288.027,750.573 286.5,750.5C 286.973,749.094 287.973,748.427 289.5,748.5 Z"/></g>
<g><path style="opacity:1" fill="#646465" d="M 398.5,740.5 C 392.183,746.813 385.517,752.813 378.5,758.5C 378.167,758.5 377.833,758.5 377.5,758.5C 377.586,757.504 377.252,756.671 376.5,756C 377.126,755.25 377.626,754.416 378,753.5C 379.388,754.554 380.888,754.72 382.5,754C 382.167,753.667 381.833,753.333 381.5,753C 384.736,750.219 387.736,747.219 390.5,744C 391.449,743.383 392.282,743.549 393,744.5C 393.49,743.207 393.657,741.873 393.5,740.5C 395.167,740.5 396.833,740.5 398.5,740.5 Z"/></g>
<g><path style="opacity:1" fill="#a2a2a2" d="M 56.5,752.5 C 58.5,752.5 59.5,753.5 59.5,755.5C 58.1667,754.833 57.1667,753.833 56.5,752.5 Z"/></g>
<g><path style="opacity:1" fill="#a5a5a6" d="M 59.5,755.5 C 61.0269,755.427 62.0269,756.094 62.5,757.5C 60.9731,757.573 59.9731,756.906 59.5,755.5 Z"/></g>
<g><path style="opacity:1" fill="#afafb0" d="M 122.5,755.5 C 124.153,755.66 125.486,756.326 126.5,757.5C 124.62,757.771 123.287,757.104 122.5,755.5 Z"/></g>
<g><path style="opacity:1" fill="#939393" d="M 64.5,759.5 C 66.7488,760.08 68.4154,761.413 69.5,763.5C 67.2512,762.92 65.5846,761.587 64.5,759.5 Z"/></g>
<g><path style="opacity:1" fill="#959596" d="M 270.5,758.5 C 269.365,760.213 267.698,760.88 265.5,760.5C 266.93,759.463 268.597,758.796 270.5,758.5 Z"/></g>
<g><path style="opacity:0.125" fill="#c8c8c9" d="M 377.5,758.5 C 377.833,758.5 378.167,758.5 378.5,758.5C 378.027,759.906 377.027,760.573 375.5,760.5C 375.833,759.5 376.5,758.833 377.5,758.5 Z"/></g>
<g><path style="opacity:1" fill="#989898" d="M 265.5,760.5 C 263.383,762.655 260.716,763.655 257.5,763.5C 259.936,762.129 262.603,761.129 265.5,760.5 Z"/></g>
<g><path style="opacity:1" fill="#8b8b8b" d="M 69.5,763.5 C 71.4044,763.738 72.7377,764.738 73.5,766.5C 71.5956,766.262 70.2623,765.262 69.5,763.5 Z"/></g>
<g><path style="opacity:1" fill="#a8a8a9" d="M 144.5,763.5 C 147.746,764.054 150.746,765.054 153.5,766.5C 150.008,766.554 147.008,765.554 144.5,763.5 Z"/></g>
<g><path style="opacity:1" fill="#757576" d="M 255.5,764.5 C 253.562,766.163 251.228,766.829 248.5,766.5C 250.515,765.076 252.848,764.41 255.5,764.5 Z"/></g>
<g><path style="opacity:1" fill="#949494" d="M 159.5,767.5 C 162.373,767.802 165.039,768.469 167.5,769.5C 164.447,769.889 161.78,769.223 159.5,767.5 Z"/></g>
<g><path style="opacity:0.125" fill="#cbcbcc" d="M 365.5,767.5 C 365.5,768.833 364.833,769.5 363.5,769.5C 363.833,768.5 364.5,767.833 365.5,767.5 Z"/></g>
<g><path style="opacity:1" fill="#8c8c8d" d="M 77.5,769.5 C 79.0269,769.427 80.0269,770.094 80.5,771.5C 78.9731,771.573 77.9731,770.906 77.5,769.5 Z"/></g>
<g><path style="opacity:1" fill="#818182" d="M 239.5,768.5 C 237.81,769.103 236.31,770.103 235,771.5C 229.934,771.113 224.768,771.113 219.5,771.5C 226.003,770.307 232.669,769.307 239.5,768.5 Z"/></g>
<g><path style="opacity:0.125" fill="#e4e5e5" d="M 362.5,773.5 C 363.833,774.167 363.833,774.167 362.5,773.5 Z"/></g>
<g><path style="opacity:1" fill="#929292" d="M 86.5,775.5 C 88.0269,775.427 89.0269,776.094 89.5,777.5C 87.9731,777.573 86.9731,776.906 86.5,775.5 Z"/></g>
<g><path style="opacity:1" fill="#ababac" d="M 89.5,777.5 C 91.0269,777.427 92.0269,778.094 92.5,779.5C 90.9731,779.573 89.9731,778.906 89.5,777.5 Z"/></g>
<g><path style="opacity:1" fill="#a9a9a9" d="M 348.5,778.5 C 347.486,779.674 346.153,780.34 344.5,780.5C 345.287,778.896 346.62,778.229 348.5,778.5 Z"/></g>
<g><path style="opacity:0.188" fill="#e3e4e3" d="M 354.5,781.5 C 355.833,782.167 355.833,782.167 354.5,781.5 Z"/></g>
<g><path style="opacity:1" fill="#7d7d7e" d="M 96.5,781.5 C 99.8116,781.149 102.145,782.482 103.5,785.5C 100.9,784.532 98.5664,783.199 96.5,781.5 Z"/></g>
<g><path style="opacity:1" fill="#717172" d="M 342.5,781.5 C 340.211,783.387 337.545,784.721 334.5,785.5C 335.09,784.234 335.59,782.901 336,781.5C 338.027,781.986 340.193,781.986 342.5,781.5 Z"/></g>
<g><path style="opacity:1" fill="#6f6f70" d="M 105.5,786.5 C 110.098,786.965 114.431,788.299 118.5,790.5C 120.175,790.868 121.175,791.868 121.5,793.5C 115.864,791.678 110.531,789.345 105.5,786.5 Z"/></g>
<g><path style="opacity:1" fill="#b1b1b2" d="M 332.5,786.5 C 331.486,787.674 330.153,788.34 328.5,788.5C 329.287,786.896 330.62,786.229 332.5,786.5 Z"/></g>
<g><path style="opacity:1" fill="#959595" d="M 121.5,793.5 C 123.698,793.12 125.365,793.787 126.5,795.5C 124.597,795.204 122.93,794.537 121.5,793.5 Z"/></g>
<g><path style="opacity:1" fill="#919192" d="M 127.5,795.5 C 129.898,795.259 131.898,795.926 133.5,797.5C 131.102,797.741 129.102,797.074 127.5,795.5 Z"/></g>
<g><path style="opacity:1" fill="#989898" d="M 139.5,799.5 C 142.152,799.41 144.485,800.076 146.5,801.5C 143.848,801.59 141.515,800.924 139.5,799.5 Z"/></g>
<g><path style="opacity:0.941" fill="#bdbdbe" d="M 297.5,799.5 C 295.786,800.738 293.786,801.405 291.5,801.5C 293.102,799.926 295.102,799.259 297.5,799.5 Z"/></g>
<g><path style="opacity:1" fill="#7d7d7e" d="M 289.5,801.5 C 287.786,802.738 285.786,803.405 283.5,803.5C 284.149,802.394 284.483,801.394 284.5,800.5C 286.071,801.309 287.738,801.643 289.5,801.5 Z"/></g>
<g><path style="opacity:1" fill="#979798" d="M 147.5,801.5 C 150.152,801.41 152.485,802.076 154.5,803.5C 151.848,803.59 149.515,802.924 147.5,801.5 Z"/></g>
</svg>
